<?xml version="1.0" encoding="utf-8" ?>
<svg baseProfile="full" height="100%" version="1.1" viewBox="0,0,1000,300" width="100%" xmlns="http://www.w3.org/2000/svg" xmlns:ev="http://www.w3.org/2001/xml-events" xmlns:xlink="http://www.w3.org/1999/xlink"><defs /><rect fill="white" height="300" width="1000" x="0" y="0" /><path d="M0,0 M307.6336975097656,49.747230529785156 L307.56915283203125,49.88649368286133 L307.45550537109375,50.345069885253906 L307.3026428222656,51.29060745239258 L307.1350402832031,52.80197525024414 L306.9747314453125,54.8446159362793 L306.8307189941406,57.31221008300781 L306.721435546875,60.054874420166016 L306.67584228515625,62.90060806274414 L306.70794677734375,65.62691497802734 L306.81854248046875,67.99903106689453 L307.0155334472656,69.82425689697266 L307.2808837890625,70.83467102050781 L307.583740234375,70.90680694580078 L307.89794921875,70.09337615966797 L308.14599609375,68.96869659423828 L308.2913818359375,68.02655029296875 M307.28515625,47.842063903808594 L307.2265625,47.909088134765625 L307.1713562011719,48.23298645019531 L307.19354248046875,48.95594024658203 L307.392822265625,50.10783767700195 L307.839111328125,51.550506591796875 L308.5478515625,53.082435607910156 L309.5081787109375,54.48783493041992 L310.69873046875,55.58722686767578 L312.10369873046875,56.242008209228516 L313.7130126953125,56.35111618041992 L315.50311279296875,55.872459411621094 L317.4243469238281,54.84431838989258 L319.41015625,53.37125015258789 L321.3941345214844,51.6075553894043 L323.2762451171875,49.745933532714844 L324.9282531738281,47.991065979003906 L326.2178649902344,46.523170471191406 L327.0426940917969,45.49076843261719 L327.3656005859375,45.0 L327.25848388671875,45.11751174926758 L326.8145751953125,45.8911247253418 L326.14068603515625,47.32632827758789 L325.3506164550781,49.353206634521484 L324.5540466308594,51.844398498535156 L323.8564758300781,54.62913513183594 L323.36419677734375,57.509849548339844 L323.14031982421875,60.302913665771484 L323.1949462890625,62.83961868286133 L323.50262451171875,64.9814224243164 L324.01458740234375,66.64225769042969 L324.67852783203125,67.7920913696289 L325.5024719238281,68.359130859375 L326.48248291015625,68.34159851074219 L327.5714416503906,67.79906463623047 L328.504638671875,67.09375 L329.11907958984375,66.5181884765625 M337.500244140625,59.24485397338867 L337.305419921875,58.901275634765625 L336.85650634765625,58.44209289550781 L336.1018371582031,58.043365478515625 L335.0736083984375,57.96562957763672 L333.8723449707031,58.32859802246094 L332.612060546875,59.167572021484375 L331.4229736328125,60.43013000488281 L330.428955078125,62.017051696777344 L329.7519226074219,63.759986877441406 L329.4895935058594,65.46048736572266 L329.70587158203125,66.9185562133789 L330.3914794921875,67.953125 L331.4776611328125,68.43926239013672 L332.85107421875,68.31644439697266 L334.3858337402344,67.5860824584961 L335.963134765625,66.31136322021484 L337.4662170410156,64.62339782714844 L338.8038635253906,62.70098114013672 L339.8947448730469,60.768436431884766 L340.6836242675781,59.034698486328125 L341.1483459472656,57.683528900146484 L341.30999755859375,56.8497200012207 L341.21710205078125,56.616153717041016 L340.9547119140625,57.01713943481445 L340.60009765625,58.05561828613281 L340.22686767578125,59.644447326660156 L339.9012145996094,61.64444351196289 L339.6952209472656,63.85472106933594 L339.6781311035156,66.02970886230469 L339.9145812988281,67.93521118164062 L340.438720703125,69.392578125 L341.2914733886719,70.15480041503906 L342.4258117675781,70.10416412353516 L343.7359619140625,69.26532745361328 L344.8621826171875,68.1689682006836 L345.5946044921875,67.26608276367188 M349.2143859863281,47.59523391723633 L349.196044921875,47.78532028198242 L349.1483154296875,48.37189483642578 L349.0587158203125,49.53014373779297 L348.927490234375,51.303062438964844 L348.77520751953125,53.58677291870117 L348.6187744140625,56.21029281616211 L348.5010681152344,58.95065689086914 L348.4541015625,61.58031463623047 L348.481201171875,63.87002182006836 L348.55792236328125,65.6405258178711 L348.6589050292969,66.78797912597656 L348.77490234375,67.29080200195312 L348.9636535644531,67.1739501953125 L349.315185546875,66.47602081298828 L349.92041015625,65.25444030761719 L350.8341064453125,63.63370132446289 L352.0684509277344,61.77180480957031 L353.5849609375,59.85038757324219 L355.30633544921875,58.037452697753906 L357.130859375,56.458457946777344 L358.90643310546875,55.19670867919922 L360.4861755371094,54.28855895996094 L361.6246643066406,53.74519729614258 L362.26287841796875,53.49566650390625 M352.7224426269531,59.98191833496094 L352.9854736328125,60.28141784667969 L353.5313720703125,60.80264663696289 L354.39990234375,61.493892669677734 L355.52911376953125,62.24824523925781 L356.84429931640625,63.03712844848633 L358.23193359375,63.847267150878906 L359.5818176269531,64.6736068725586 L360.79595947265625,65.42816162109375 L361.8006286621094,65.97909545898438 L362.556640625,66.23951721191406 L363.03118896484375,66.26985168457031 L363.26324462890625,66.18563842773438 M364.68707275390625,58.620826721191406 L364.650634765625,58.973140716552734 L364.5968017578125,59.68933868408203 L364.5472106933594,60.782447814941406 L364.5384521484375,62.1429557800293 L364.604248046875,63.648582458496094 L364.7632751464844,65.15263366699219 L365.02789306640625,66.5346908569336 L365.39825439453125,67.595947265625 L365.84295654296875,68.16312408447266 L366.31103515625,68.16643524169922 L366.6893310546875,67.84793853759766 L366.9195556640625,67.47193908691406 M366.0458984375,50.903480529785156 L366.0074462890625,50.667850494384766 L365.98211669921875,50.41155242919922 L365.97509765625,50.21387481689453 L365.991455078125,50.15411376953125 M370.3122253417969,64.2152099609375 L370.23822021484375,64.4837417602539 L370.1397705078125,64.85067749023438 L370.0621337890625,65.19416046142578 L370.07379150390625,65.33295440673828 L370.2291259765625,65.1943130493164 L370.56329345703125,64.72480773925781 L371.09375,63.93901062011719 L371.834716796875,62.88467025756836 L372.764404296875,61.67463302612305 L373.833984375,60.46166229248047 L374.9821472167969,59.4043083190918 L376.15057373046875,58.6236686706543 L377.282470703125,58.209346771240234 L378.3486022949219,58.201866149902344 L379.30914306640625,58.60590362548828 L380.13916015625,59.38824462890625 L380.806640625,60.47422790527344 L381.3110046386719,61.755615234375 L381.6702880859375,63.104042053222656 L381.969482421875,64.36713409423828 L382.2897033691406,65.40521240234375 L382.70880126953125,66.12866973876953 L383.1150817871094,66.5252685546875 L383.41851806640625,66.6751480102539 M392.7366027832031,61.374794006347656 L392.6353759765625,60.94230651855469 L392.32958984375,60.332061767578125 L391.72076416015625,59.72966384887695 L390.78839111328125,59.412452697753906 L389.61700439453125,59.48522186279297 L388.3828125,59.96759033203125 L387.290771484375,60.77238464355469 L386.54815673828125,61.76721954345703 L386.31060791015625,62.772705078125 L386.6758728027344,63.60148620605469 L387.64678955078125,64.11192321777344 L389.12420654296875,64.21981048583984 L390.9245910644531,63.92180633544922 L392.821044921875,63.28396224975586 L394.59674072265625,62.42380905151367 L396.0823974609375,61.478790283203125 L397.153564453125,60.58639907836914 L397.7628173828125,59.86103820800781 L397.9344787597656,59.40219497680664 L397.7523498535156,59.29155349731445 L397.3606872558594,59.58842468261719 L396.90869140625,60.321285247802734 L396.53338623046875,61.459285736083984 L396.35626220703125,62.94010925292969 L396.4531555175781,64.6885757446289 L396.8492431640625,66.62484741210938 L397.5206298828125,68.68389892578125 L398.3857421875,70.79998779296875 L399.33544921875,72.88020324707031 L400.25592041015625,74.84001922607422 L401.0531005859375,76.5954818725586 L401.6454162597656,78.06012725830078 L401.9673767089844,79.1897201538086 L401.96295166015625,79.95747375488281 L401.59490966796875,80.3508529663086 L400.86590576171875,80.37730407714844 L399.8511962890625,80.05252075195312 L398.6649169921875,79.39927673339844 L397.46087646484375,78.47803497314453 L396.39923095703125,77.35920715332031 L395.62567138671875,76.114013671875 L395.2579345703125,74.80242156982422 L395.3819580078125,73.47288513183594 L396.0274353027344,72.16851043701172 L397.17608642578125,70.94055938720703 L398.75164794921875,69.84757232666016 L400.6715087890625,68.9154052734375 L402.7674560546875,68.15142059326172 L404.83892822265625,67.5357894897461 L406.45343017578125,67.1063461303711 L407.42462158203125,66.85848999023438 M423.02923583984375,58.475826263427734 L423.0330810546875,58.549652099609375 L423.03656005859375,58.8028450012207 L423.0423583984375,59.3428955078125 L423.0513916015625,60.22920227050781 L423.0863037109375,61.44195556640625 L423.1400146484375,62.893280029296875 L423.2147216796875,64.42767333984375 L423.29913330078125,65.85570526123047 L423.385009765625,67.00035858154297 L423.47259521484375,67.70819091796875 L423.5970458984375,67.8764419555664 L423.7894592285156,67.45234680175781 L424.1344299316406,66.44060516357422 L424.6826171875,64.93024444580078 L425.4725646972656,63.10270309448242 L426.509521484375,61.182979583740234 L427.75030517578125,59.39645004272461 L429.0973815917969,57.924110412597656 L430.45855712890625,56.89088821411133 L431.72760009765625,56.373512268066406 L432.83367919921875,56.408939361572266 L433.7512512207031,56.9864501953125 L434.4801025390625,58.04094696044922 L435.0164794921875,59.4416618347168 L435.3744201660156,60.99147033691406 L435.5606384277344,62.46577835083008 L435.6063232421875,63.65958023071289 L435.5831298828125,64.41521453857422 L435.60650634765625,64.63787078857422 L435.79168701171875,64.30557250976562 L436.2398376464844,63.44989013671875 L436.9774169921875,62.184505462646484 L437.9774475097656,60.699764251708984 L439.1680908203125,59.21113967895508 L440.47503662109375,57.911128997802734 L441.78533935546875,56.95083999633789 L443.01416015625,56.42377853393555 L444.0617980957031,56.378883361816406 L444.8544616699219,56.83320617675781 L445.36016845703125,57.76215744018555 L445.6167907714844,59.08011245727539 L445.6878662109375,60.63230895996094 L445.7024841308594,62.22592544555664 L445.7762756347656,63.6371955871582 L445.982177734375,64.6900634765625 L446.3311767578125,65.3106918334961 L446.6900634765625,65.5717544555664 L446.95166015625,65.6148910522461 M450.65313720703125,57.742183685302734 L450.6683044433594,57.990543365478516 L450.7327880859375,58.51774978637695 L450.89544677734375,59.348968505859375 L451.2044677734375,60.39671325683594 L451.6893005371094,61.54152297973633 L452.35333251953125,62.6367301940918 L453.197998046875,63.53929901123047 L454.21484375,64.12307739257812 L455.40557861328125,64.28219604492188 L456.7604675292969,63.95747375488281 L458.2345275878906,63.165016174316406 L459.76348876953125,61.998046875 L461.235595703125,60.62773513793945 L462.5358581542969,59.26765823364258 L463.55322265625,58.10740661621094 L464.1770324707031,57.30593490600586 L464.3245849609375,56.97937774658203 L463.97552490234375,57.19660186767578 L463.123291015625,58.00148391723633 L461.859619140625,59.40658950805664 L460.31988525390625,61.33798599243164 L458.64959716796875,63.69132614135742 L457.0086669921875,66.31974792480469 L455.54229736328125,69.0521011352539 L454.3465576171875,71.71502685546875 L453.5028076171875,74.16275787353516 L453.0472412109375,76.25788879394531 L453.04290771484375,77.84961700439453 L453.50225830078125,78.81945037841797 L454.3687744140625,79.13165283203125 L455.27447509765625,79.02206420898438 L455.94793701171875,78.76564025878906 M476.324951171875,57.35087966918945 L476.2617492675781,57.564483642578125 L476.1286926269531,58.099544525146484 L475.93109130859375,59.04755783081055 L475.7264404296875,60.37385559082031 L475.60040283203125,61.9542236328125 L475.6402282714844,63.609676361083984 L475.915283203125,65.15359497070312 L476.4638671875,66.4141845703125 L477.28887939453125,67.24871063232422 L478.3746032714844,67.54586791992188 L479.676025390625,67.26286315917969 L481.1247253417969,66.42070007324219 L482.6243896484375,65.12467193603516 L484.075439453125,63.53485870361328 L485.36572265625,61.84634780883789 L486.3970947265625,60.2425651550293 L487.1012268066406,58.874210357666016 L487.43994140625,57.85310745239258 L487.40472412109375,57.27155685424805 L487.0472412109375,57.195648193359375 L486.44085693359375,57.670509338378906 L485.7087707519531,58.67301940917969 L485.025146484375,60.09687423706055 L484.5667419433594,61.76418685913086 L484.4727783203125,63.465492248535156 L484.8343811035156,64.99530792236328 L485.6598815917969,66.19546508789062 L486.91033935546875,66.94829559326172 L488.5177001953125,67.18805694580078 L490.38653564453125,66.88382720947266 L492.388671875,66.052734375 L494.3729248046875,64.7592544555664 L496.1643371582031,63.118438720703125 L497.6070251464844,61.2841911315918 L498.60247802734375,59.43452072143555 L499.0921630859375,57.746212005615234 L499.114013671875,56.36945343017578 L498.782470703125,55.395259857177734 L498.35552978515625,54.83843231201172 L498.0203857421875,54.60770034790039 M509.2308349609375,59.50467300415039 L508.9938659667969,59.04559326171875 L508.4848327636719,58.39729309082031 L507.6451721191406,57.764320373535156 L506.5201416015625,57.44778060913086 L505.187744140625,57.57232666015625 L503.7748718261719,58.187294006347656 L502.43194580078125,59.24240493774414 L501.327392578125,60.629966735839844 L500.60455322265625,62.184539794921875 L500.3834228515625,63.69537353515625 L500.72186279296875,64.9579086303711 L501.60906982421875,65.80555725097656 L502.9610595703125,66.13855743408203 L504.640869140625,65.9169692993164 L506.47711181640625,65.17263793945312 L508.30328369140625,63.9881477355957 L509.97119140625,62.491668701171875 L511.33892822265625,60.87277603149414 L512.3284912109375,59.343605041503906 L512.9229736328125,58.09349060058594 L513.1534423828125,57.27473449707031 L513.1095581054688,56.97306823730469 L512.8975830078125,57.20346450805664 L512.5789184570312,57.963016510009766 L512.25244140625,59.184913635253906 L512.0242919921875,60.7227897644043 L511.98858642578125,62.39090347290039 L512.238037109375,63.98575973510742 L512.8375244140625,65.31379699707031 L513.7780151367188,66.24712371826172 L515.026611328125,66.6958236694336 L516.5223999023438,66.59819793701172 L518.1765747070312,65.94976806640625 L519.8865356445312,64.8104019165039 L521.5506591796875,63.294761657714844 L523.0662841796875,61.56728744506836 L524.3565063476562,59.80623245239258 L525.363525390625,58.178871154785156 L526.05810546875,56.82520294189453 L526.431884765625,55.86319351196289 L526.5020751953125,55.38222885131836 L526.3211669921875,55.43681335449219 L525.9879150390625,56.03031539916992 L525.6097412109375,57.101173400878906 L525.325439453125,58.49659729003906 L525.2750244140625,60.009979248046875 L525.5782470703125,61.415138244628906 L526.3245239257812,62.504215240478516 L527.5397338867188,63.134159088134766 L529.1640625,63.241371154785156 L531.07861328125,62.82984924316406 L533.1207275390625,61.97164535522461 L535.1192016601562,60.78781509399414 L536.9364013671875,59.423763275146484 L538.47705078125,58.048152923583984 L539.6812133789062,56.807132720947266 L540.5137939453125,55.832244873046875 L540.9609985351562,55.236610412597656 L541.0281372070312,55.11479187011719 L540.7529296875,55.537803649902344 L540.2252197265625,56.53912353515625 L539.5453491210938,58.076927185058594 L538.8125610351562,60.06648254394531 L538.1126098632812,62.407859802246094 L537.501708984375,64.99821472167969 L537.0111083984375,67.7320327758789 L536.6650390625,70.49169158935547 L536.4385375976562,73.1526107788086 L536.2762451171875,75.58921813964844 L536.1117553710938,77.71599578857422 L535.8589477539062,79.48186492919922 L535.433349609375,80.85948944091797 L534.7650146484375,81.84527587890625 L533.781005859375,82.4560775756836 L532.4755859375,82.71531677246094 L530.8917846679688,82.58646392822266 L529.1643676757812,82.07283782958984 L527.4783935546875,81.23001861572266 L526.1861572265625,80.38275146484375 L525.4183349609375,79.76708984375 M566.5689697265625,62.041542053222656 L566.399658203125,61.70722961425781 L566.0504150390625,61.21285629272461 L565.4674072265625,60.685245513916016 L564.63720703125,60.34208679199219 L563.55126953125,60.30330276489258 L562.256103515625,60.66110610961914 L560.881103515625,61.42782974243164 L559.60107421875,62.56654739379883 L558.62255859375,63.95442581176758 L558.0845947265625,65.406005859375 L558.0594482421875,66.72154998779297 L558.5439453125,67.72044372558594 L559.4945068359375,68.25740051269531 L560.84375,68.23987579345703 L562.54443359375,67.61829376220703 L564.4860229492188,66.37825012207031 L566.5592041015625,64.55938720703125 L568.648193359375,62.24892044067383 L570.65576171875,59.58000183105469 L572.5169677734375,56.71977996826172 L574.2089233398438,53.844512939453125 L575.672119140625,51.14756774902344 L576.868896484375,48.814937591552734 L577.7466430664062,46.995906829833984 L578.2659301757812,45.80807876586914 L578.422607421875,45.326904296875 L578.26708984375,45.57703399658203 L577.841552734375,46.57972717285156 L577.248779296875,48.29518508911133 L576.5816040039062,50.596519470214844 L575.93505859375,53.284629821777344 L575.431396484375,56.13275146484375 L575.1746826171875,58.910465240478516 L575.1888427734375,61.44278335571289 L575.4603271484375,63.60838317871094 L575.95654296875,65.28868865966797 L576.6044311523438,66.39547729492188 L577.3759765625,66.93508911132812 L578.0631103515625,67.07080841064453 L578.531005859375,67.00520324707031 M587.5922241210938,59.595176696777344 L587.3968505859375,59.27873992919922 L586.96533203125,58.88756561279297 L586.260009765625,58.59522247314453 L585.3310546875,58.6356315612793 L584.287841796875,59.078311920166016 L583.277099609375,59.91236877441406 L582.4611206054688,61.044097900390625 L581.988037109375,62.36075973510742 L581.9644775390625,63.703125 L582.4349365234375,64.9128189086914 L583.3907470703125,65.84175109863281 L584.7713012695312,66.36064147949219 L586.472412109375,66.38233947753906 L588.34033203125,65.8788070678711 L590.1884155273438,64.87956237792969 L591.8057861328125,63.480411529541016 L593.008056640625,61.83014678955078 L593.682861328125,60.106449127197266 L593.8112182617188,58.49032974243164 L593.4569702148438,57.14256286621094 L592.7572021484375,56.178768157958984 L591.85009765625,55.670196533203125 L590.8776245117188,55.635066986083984 L589.9935913085938,56.07830810546875 L589.3309326171875,56.913116455078125 L588.9761962890625,57.984107971191406 L588.8796997070312,58.93434524536133 L588.921630859375,59.55759048461914 M599.029052734375,58.41141128540039 L598.900634765625,58.67864227294922 L598.6608276367188,59.26222229003906 L598.3387451171875,60.20916748046875 L598.03369140625,61.44847869873047 L597.857421875,62.859214782714844 L597.9027099609375,64.2899398803711 L598.2220458984375,65.58982849121094 L598.8344116210938,66.61132049560547 L599.727783203125,67.22344207763672 L600.876708984375,67.32756042480469 L602.2327880859375,66.88056182861328 L603.72021484375,65.91606903076172 L605.23828125,64.54553985595703 L606.68505859375,62.924259185791016 L607.979248046875,61.222957611083984 L609.0394287109375,59.596893310546875 L609.82470703125,58.18586349487305 L610.328857421875,57.07776641845703 L610.5592041015625,56.33685302734375 L610.5383911132812,56.00239181518555 L610.305419921875,56.11812973022461 L609.8650512695312,56.716514587402344 L609.2846069335938,57.80775451660156 L608.6826171875,59.302024841308594 L608.1975708007812,61.04949188232422 L607.9725952148438,62.83819580078125 L608.1130981445312,64.48634338378906 L608.6575927734375,65.84129333496094 L609.6043701171875,66.79975891113281 L610.9037475585938,67.30233764648438 L612.466552734375,67.33684539794922 L614.1753540039062,66.91069030761719 L615.8817138671875,66.09130096435547 L617.4510498046875,64.95708465576172 L618.7674560546875,63.60647201538086 L619.7454833984375,62.16082763671875 L620.3614501953125,60.73051452636719 L620.6419677734375,59.41501235961914 L620.6400146484375,58.29520797729492 L620.4285888671875,57.434059143066406 L620.1017456054688,56.86415100097656 L619.7399291992188,56.58419418334961 L619.4498291015625,56.506675720214844 L619.279052734375,56.53224563598633 M626.377197265625,57.96626281738281 L626.2881469726562,58.35418701171875 L626.1052856445312,59.105926513671875 L625.8358154296875,60.21648025512695 L625.523681640625,61.535240173339844 L625.2239379882812,62.91194152832031 L624.9656982421875,64.1826400756836 L624.7662353515625,65.2168960571289 L624.650634765625,65.89734649658203 L624.6639404296875,66.14856719970703 L624.8480224609375,65.93707275390625 L625.252685546875,65.2744369506836 L625.885498046875,64.22370147705078 L626.7344970703125,62.91700744628906 L627.7847290039062,61.48877716064453 L629.006103515625,60.096248626708984 L630.3399047851562,58.88427734375 L631.7384033203125,57.96564865112305 L633.125732421875,57.414154052734375 L634.418701171875,57.28404235839844 L635.5479736328125,57.57371139526367 L636.4517822265625,58.260807037353516 L637.0968017578125,59.28820037841797 L637.5111694335938,60.56870651245117 L637.7457885742188,61.98161697387695 L637.8837890625,63.397216796875 L638.01904296875,64.6863784790039 L638.23779296875,65.74881744384766 L638.6544189453125,66.42732238769531 L639.3236694335938,66.6200942993164 L640.2263793945312,66.29692077636719 L641.0780029296875,65.75093841552734 L641.6748046875,65.25546264648438 M648.44873046875,48.54506301879883 L648.328125,48.893463134765625 L648.1162109375,49.66274642944336 L647.8328857421875,50.916778564453125 L647.5398559570312,52.58161163330078 L647.2921142578125,54.536319732666016 L647.1348266601562,56.65851593017578 L647.1019897460938,58.82059860229492 L647.2215576171875,60.917205810546875 L647.5083618164062,62.836219787597656 L647.9661865234375,64.49288940429688 L648.6051025390625,65.83011627197266 L649.428955078125,66.78489685058594 L650.3863525390625,67.29212188720703 L651.3877563476562,67.34855651855469 L652.1978759765625,67.1465835571289 L652.6941528320312,66.88944244384766 M643.89501953125,57.2753791809082 L644.0423583984375,57.205265045166016 L644.5020751953125,57.09495162963867 L645.425048828125,56.973079681396484 L646.9012451171875,56.888336181640625 L648.829833984375,56.8614501953125 L650.9788208007812,56.89424514770508 L652.768798828125,56.951904296875 L653.8988037109375,57.00019454956055 M664.2427978515625,59.45692825317383 L663.9867553710938,59.32738494873047 L663.432861328125,59.220497131347656 L662.539794921875,59.258907318115234 L661.392333984375,59.58539581298828 L660.1477661132812,60.231475830078125 L659.0187377929688,61.157623291015625 L658.2003173828125,62.278236389160156 L657.8436279296875,63.48823928833008 L658.0243530273438,64.6622085571289 L658.7369384765625,65.6927261352539 L659.9256591796875,66.47030639648438 L661.4920654296875,66.89743041992188 L663.2994384765625,66.91736602783203 L665.1854248046875,66.50794219970703 L666.9723510742188,65.69064331054688 L668.4760131835938,64.5425796508789 L669.5562744140625,63.16754150390625 L670.1472778320312,61.68126678466797 L670.2682495117188,60.21830368041992 L669.9633178710938,58.91393280029297 L669.33740234375,57.887046813964844 L668.5225830078125,57.207298278808594 L667.79248046875,56.85652160644531 L667.3070678710938,56.73668670654297 M675.3807373046875,58.323638916015625 L675.238525390625,58.40806198120117 L674.9847412109375,58.70454788208008 L674.641357421875,59.32109832763672 L674.2921752929688,60.300113677978516 L674.0247802734375,61.56306838989258 L673.9293823242188,63.000244140625 L674.080810546875,64.46420288085938 L674.5449829101562,65.78787231445312 L675.341064453125,66.82266998291016 L676.4548950195312,67.44326782226562 L677.8363037109375,67.54812622070312 L679.3995971679688,67.12574005126953 L681.03759765625,66.2232666015625 L682.647705078125,64.93424987792969 L684.1312866210938,63.401405334472656 L685.399658203125,61.77812194824219 L686.3785400390625,60.208274841308594 L687.02099609375,58.82088088989258 L687.31103515625,57.7080192565918 L687.2596435546875,56.949832916259766 L686.913818359375,56.606773376464844 L686.3221435546875,56.73797607421875 L685.5531616210938,57.379947662353516 L684.72021484375,58.49602508544922 L683.97705078125,59.968284606933594 L683.4808349609375,61.627418518066406 L683.3739624023438,63.268516540527344 L683.7289428710938,64.72831726074219 L684.5474243164062,65.89110565185547 L685.7825927734375,66.66876983642578 L687.3465576171875,67.03103637695312 L689.1231689453125,66.96589660644531 L690.981201171875,66.48954010009766 L692.783203125,65.6459732055664 L694.3988037109375,64.50033569335938 L695.73779296875,63.12193298339844 L696.7440185546875,61.6225700378418 L697.4120483398438,60.1082878112793 L697.77734375,58.690879821777344 L697.88330078125,57.47190475463867 L697.7935791015625,56.53315734863281 L697.5884399414062,55.906211853027344 L697.37744140625,55.57314682006836 L697.2296142578125,55.45079040527344 M703.9337158203125,57.75364685058594 L703.8705444335938,57.831687927246094 L703.7299194335938,58.107398986816406 L703.491943359375,58.685699462890625 L703.150634765625,59.613006591796875 L702.7264404296875,60.8317756652832 L702.2615966796875,62.243797302246094 L701.843505859375,63.711456298828125 L701.539794921875,65.09730529785156 L701.3748779296875,66.27493286132812 L701.32373046875,67.14794158935547 L701.3614501953125,67.62446594238281 L701.482421875,67.64930725097656 L701.756591796875,67.19969940185547 L702.2487182617188,66.28829956054688 L702.997314453125,64.99160766601562 L704.0013427734375,63.45115280151367 L705.2339477539062,61.81856918334961 L706.6495361328125,60.2434196472168 L708.207275390625,58.86497116088867 L709.8471069335938,57.79105758666992 L711.5078125,57.102821350097656 L713.1004638671875,56.85915756225586 L714.53125,57.07560348510742 L715.6964111328125,57.73044967651367 L716.5069580078125,58.77851867675781 L716.927734375,60.140106201171875 L717.02392578125,61.690040588378906 L716.9234619140625,63.307090759277344 L716.787353515625,64.84428405761719 L716.732666015625,66.17294311523438 L716.7596435546875,67.1108627319336 L716.819091796875,67.62834930419922 " fill="none" stroke="black" stroke-linecap="round" stroke-width="2" /><path d="M0,0 M446.11077880859375,105.47700500488281 L446.0727844238281,105.68414306640625 L445.92498779296875,106.20568084716797 L445.60382080078125,107.1581802368164 L445.08563232421875,108.56413269042969 L444.410888671875,110.39013671875 L443.6468200683594,112.54295349121094 L442.8851318359375,114.89479064941406 L442.22442626953125,117.29361724853516 L441.7601013183594,119.56182098388672 L441.5769958496094,121.50749206542969 L441.7410888671875,122.96224975585938 L442.2867736816406,123.78750610351562 L443.2182312011719,123.89783477783203 L444.5084228515625,123.28081512451172 L446.0914001464844,121.99786376953125 L447.8617248535156,120.1811752319336 L449.69830322265625,118.00811004638672 L451.48443603515625,115.671630859375 L453.12835693359375,113.34317779541016 L454.5584411621094,111.18455505371094 L455.724853515625,109.33488464355469 L456.6033935546875,107.89878845214844 L457.1847839355469,106.9555435180664 L457.4596252441406,106.57367706298828 L457.4271545410156,106.78189086914062 L457.07574462890625,107.61156463623047 L456.4163818359375,109.05155181884766 L455.50836181640625,111.02220153808594 L454.44781494140625,113.3888931274414 L453.3497619628906,115.97820281982422 L452.351806640625,118.56832885742188 L451.56939697265625,120.94255065917969 L451.0924072265625,122.89964294433594 L450.9830322265625,124.272705078125 L451.27130126953125,124.95150756835938 L451.9599914550781,124.89165496826172 L453.05072021484375,124.08991241455078 L454.5096435546875,122.59919738769531 L456.2635192871094,120.53795623779297 L458.2168884277344,118.07748413085938 L460.2583312988281,115.41625213623047 L462.2748107910156,112.75389862060547 L464.16571044921875,110.26988220214844 L465.8266906738281,108.15155029296875 L467.1552734375,106.55577850341797 L468.10614013671875,105.5687255859375 L468.6651916503906,105.11250305175781 L468.9131774902344,105.0 M464.9299621582031,120.79679107666016 L464.8021545410156,120.36884307861328 L464.51348876953125,119.72264099121094 L464.01007080078125,119.02159881591797 L463.2824401855469,118.53813934326172 L462.3508605957031,118.41851806640625 L461.268310546875,118.72962951660156 L460.12542724609375,119.45500946044922 L459.04296875,120.53170013427734 L458.145751953125,121.83516693115234 L457.5513000488281,123.19757843017578 L457.34661865234375,124.44212341308594 L457.5724792480469,125.3975601196289 L458.223388671875,125.93241882324219 L459.2528991699219,125.96138763427734 L460.5773010253906,125.45925903320312 L462.0841979980469,124.46749877929688 L463.6341552734375,123.0958480834961 L465.0832824707031,121.52723693847656 L466.3070068359375,119.97705841064453 L467.23016357421875,118.63914489746094 L467.8254089355469,117.66046905517578 L468.10687255859375,117.1284408569336 L468.10748291015625,117.0708236694336 L467.8583984375,117.50529479980469 L467.398193359375,118.41629791259766 L466.79339599609375,119.7231216430664 L466.1344909667969,121.30209350585938 L465.5318603515625,123.00354766845703 L465.0955505371094,124.66875457763672 L464.9067687988281,126.16617584228516 L465.02252197265625,127.38131713867188 L465.4848327636719,128.1949005126953 L466.32427978515625,128.51449584960938 L467.55255126953125,128.28439331054688 L469.1466064453125,127.49073791503906 L471.0352478027344,126.1628189086914 L473.11328125,124.36663055419922 L475.26019287109375,122.18505859375 L477.36199951171875,119.73102569580078 L479.3128662109375,117.13838195800781 L481.01239013671875,114.55824279785156 L482.37158203125,112.14533996582031 L483.3253173828125,110.03653717041016 L483.83624267578125,108.33464050292969 L483.8964538574219,107.11690521240234 L483.5194396972656,106.43791961669922 L482.73834228515625,106.34600067138672 L481.6148681640625,106.87802124023438 L480.2445068359375,108.03118896484375 L478.74212646484375,109.74967956542969 L477.2256774902344,111.92668151855469 L475.7928161621094,114.4184341430664 L474.51861572265625,117.0677490234375 L473.46099853515625,119.71990203857422 L472.67138671875,122.22064971923828 L472.1985778808594,124.42750549316406 L472.0900573730469,126.2151870727539 L472.3786315917969,127.48938751220703 L473.08001708984375,128.18423461914062 L474.1846923828125,128.25518798828125 L475.6568908691406,127.68798828125 L477.43304443359375,126.50373077392578 L479.4306335449219,124.7606430053711 L481.5581970214844,122.55644226074219 L483.7208251953125,120.02979278564453 L485.8196105957031,117.33792114257812 L487.7560729980469,114.66722869873047 L489.420654296875,112.19696044921875 L490.7242431640625,110.083984375 L491.621337890625,108.43208312988281 L492.1115417480469,107.31291961669922 L492.22393798828125,106.7579345703125 L491.99981689453125,106.79751586914062 L491.4608154296875,107.43641662597656 L490.641357421875,108.65521240234375 L489.59912109375,110.3858413696289 L488.40924072265625,112.52725982666016 L487.1494140625,114.93978118896484 L485.89105224609375,117.47360229492188 L484.6982421875,119.99598693847656 L483.6361999511719,122.37958526611328 L482.7783203125,124.51420593261719 L482.1736145019531,126.30437469482422 L481.8434753417969,127.66177368164062 L481.7991943359375,128.49887084960938 L482.0758056640625,128.80401611328125 L482.7106628417969,128.5936279296875 L483.73956298828125,127.93048858642578 L485.1272888183594,126.91378784179688 L486.76861572265625,125.66307830810547 L488.5161437988281,124.29129791259766 L490.22027587890625,122.93033599853516 L491.7354736328125,121.69087219238281 L492.9564208984375,120.65550231933594 L493.80767822265625,119.87901306152344 L494.2497863769531,119.38529968261719 L494.2779235839844,119.16278076171875 L493.91796875,119.18364715576172 L493.20684814453125,119.4136962890625 L492.2115783691406,119.80319213867188 L491.0309143066406,120.29523468017578 L489.7756652832031,120.82662963867188 L488.5614929199219,121.33258819580078 L487.5006408691406,121.78070068359375 L486.67437744140625,122.16329956054688 L486.13092041015625,122.48724365234375 L485.8786926269531,122.77261352539062 L485.88397216796875,123.03917694091797 L486.1029052734375,123.29917907714844 L486.5024108886719,123.56415557861328 L487.06732177734375,123.83473205566406 L487.79766845703125,124.09270477294922 L488.69134521484375,124.31075286865234 L489.7339782714844,124.45384216308594 L490.8985290527344,124.48507690429688 L492.14532470703125,124.3685073852539 L493.4288635253906,124.07952880859375 L494.70068359375,123.59797668457031 L495.91033935546875,122.91837310791016 L497.0101623535156,122.05436706542969 L497.95428466796875,121.04486083984375 L498.7040100097656,119.94705200195312 L499.2421875,118.84605407714844 L499.5812072753906,117.82759094238281 L499.7560729980469,116.97492980957031 L499.80828857421875,116.35491180419922 L499.76678466796875,116.01500701904297 L499.6331787109375,115.973388671875 L499.4044494628906,116.23641967773438 L499.08587646484375,116.77594757080078 L498.69671630859375,117.544921875 L498.2675476074219,118.47327423095703 L497.8369140625,119.48461151123047 L497.4322509765625,120.49805450439453 L497.0921630859375,121.44721984863281 L496.8429870605469,122.2837142944336 L496.69952392578125,122.97926330566406 L496.66668701171875,123.5185317993164 L496.7511901855469,123.89387512207031 L496.96246337890625,124.08316802978516 L497.336669921875,124.05658721923828 L497.89910888671875,123.80452728271484 L498.65106201171875,123.33680725097656 L499.5567932128906,122.69236755371094 L500.54486083984375,121.9301528930664 L501.52886962890625,121.12039947509766 L502.4239807128906,120.33697509765625 L503.16595458984375,119.66551208496094 L503.7159423828125,119.15483093261719 L504.05718994140625,118.83639526367188 L504.18646240234375,118.72184753417969 L504.11737060546875,118.8260726928711 L503.8585205078125,119.16647338867188 L503.44268798828125,119.75667572021484 L502.92510986328125,120.54753112792969 L502.3671875,121.473876953125 L501.8294982910156,122.45466613769531 L501.36553955078125,123.42230224609375 L500.9984436035156,124.32345581054688 L500.7464904785156,125.12054443359375 L500.633056640625,125.76717376708984 L500.6811828613281,126.22734832763672 L500.9260559082031,126.46240234375 L501.40936279296875,126.44241333007812 L502.14453125,126.14453125 L503.1172180175781,125.57808685302734 L504.27734375,124.78605651855469 L505.5433044433594,123.84048461914062 L506.82196044921875,122.83150482177734 L508.0147399902344,121.86128997802734 L509.03143310546875,121.02365112304688 L509.805908203125,120.3784408569336 L510.30419921875,119.96426391601562 L510.5277404785156,119.80249786376953 L510.5040283203125,119.90888977050781 L510.26019287109375,120.3036117553711 L509.83990478515625,120.99047088623047 L509.2995300292969,121.90550231933594 L508.71380615234375,122.95780181884766 L508.1668701171875,124.03543090820312 L507.73907470703125,125.03113555908203 L507.4928894042969,125.86248016357422 L507.482421875,126.46408081054688 L507.75531005859375,126.76912689208984 L508.34576416015625,126.73865509033203 L509.2574462890625,126.36439514160156 L510.449462890625,125.6887435913086 L511.8369140625,124.80374145507812 L513.297607421875,123.8248291015625 L514.7127685546875,122.8804702758789 L515.9744262695312,122.07566833496094 L517.0068359375,121.48474884033203 L517.7681884765625,121.1562728881836 L518.24462890625,121.111572265625 L518.443603515625,121.34667205810547 L518.4156494140625,121.88395690917969 L518.2227172851562,122.71580505371094 L517.9503173828125,123.80543518066406 L517.685302734375,125.0791015625 L517.5379028320312,126.43824768066406 L517.5834350585938,127.740234375 L517.857421875,128.89193725585938 L518.20654296875,129.718994140625 L518.49658203125,130.1820526123047 M525.6690063476562,125.8008804321289 L525.5692749023438,125.44278717041016 L525.3434448242188,124.93560791015625 L524.9425048828125,124.41779327392578 L524.3505859375,124.09996032714844 L523.57421875,124.05339813232422 L522.681640625,124.30526733398438 L521.7875366210938,124.835693359375 L521.0328979492188,125.61300659179688 L520.5481567382812,126.55816650390625 L520.43408203125,127.55744934082031 L520.7443237304688,128.47341918945312 L521.4915161132812,129.1646270751953 L522.6390380859375,129.5232696533203 L524.0939331054688,129.4747314453125 L525.7152099609375,128.99374389648438 L527.3361206054688,128.10833740234375 L528.789306640625,126.90142059326172 L529.9418334960938,125.50288391113281 L530.7147827148438,124.0687484741211 L531.0838012695312,122.74227142333984 L531.0711669921875,121.63874053955078 L530.735595703125,120.84161376953125 L530.1569213867188,120.4150619506836 L529.427978515625,120.4083251953125 L528.6517333984375,120.84132385253906 L527.9285888671875,121.69222259521484 L527.3440551757812,122.89605712890625 L526.9656982421875,124.37047576904297 L526.830322265625,126.0313491821289 L526.9398193359375,127.80277252197266 L527.2681274414062,129.6224822998047 L527.7596435546875,131.427978515625 L528.3411254882812,133.1456298828125 L528.9281616210938,134.72186279296875 L529.4379272460938,136.1173858642578 L529.794677734375,137.306640625 L529.944091796875,138.2899169921875 L529.8490600585938,139.06735229492188 L529.4979858398438,139.62159729003906 L528.885986328125,139.9385986328125 L528.0331420898438,139.9980926513672 L526.9797973632812,139.7818145751953 L525.7930297851562,139.29067993164062 L524.55859375,138.54449462890625 L523.3720703125,137.5807647705078 L522.3148193359375,136.4595947265625 L521.4514770507812,135.25283813476562 L520.85888671875,133.9993133544922 L520.578369140625,132.75894165039062 L520.6067504882812,131.59901428222656 L520.7933349609375,130.71548461914062 L520.993408203125,130.1879425048828 M531.0367431640625,121.84716033935547 L531.09130859375,121.8791275024414 L531.269287109375,121.98387908935547 L531.6367797851562,122.17626953125 L532.2344360351562,122.4278793334961 L533.0533447265625,122.65728759765625 L534.0728759765625,122.79761505126953 L535.2388916015625,122.7984390258789 L536.4926147460938,122.6423110961914 L537.762939453125,122.32528686523438 L538.979736328125,121.84441375732422 L540.0652465820312,121.17865753173828 L540.9747924804688,120.34797668457031 L541.6572265625,119.38681030273438 L542.1001586914062,118.37026977539062 L542.3109741210938,117.3869400024414 L542.3139038085938,116.52217102050781 L542.12646484375,115.83023071289062 L541.7689208984375,115.37879943847656 L541.2318725585938,115.21112060546875 L540.5308227539062,115.3783187866211 L539.6981201171875,115.90510559082031 L538.791259765625,116.78465270996094 L537.8779907226562,117.97183990478516 L537.0249633789062,119.40534210205078 L536.28564453125,121.01456451416016 L535.7109375,122.7391357421875 L535.3442993164062,124.51224517822266 L535.230712890625,126.27212524414062 L535.4118041992188,127.9512710571289 L535.9190063476562,129.4746551513672 L536.7621459960938,130.78407287597656 L537.99072265625,131.80458068847656 L539.5579833984375,132.4788360595703 L541.3416137695312,132.80499267578125 L542.8711547851562,132.8837127685547 L543.87060546875,132.8402557373047 M549.5067749023438,130.66842651367188 L550.20654296875,130.43148803710938 L551.375,129.99148559570312 L552.8966064453125,129.33624267578125 L554.4929809570312,128.4950714111328 L556.0570678710938,127.44437408447266 L557.5010986328125,126.17247772216797 L558.7584228515625,124.684814453125 L559.740478515625,123.05130767822266 L560.3795776367188,121.38883972167969 L560.639404296875,119.83775329589844 L560.513916015625,118.532958984375 L560.0218505859375,117.5958023071289 L559.1957397460938,117.11961364746094 L558.0865478515625,117.17660522460938 L556.762939453125,117.80287170410156 L555.3125610351562,118.98875427246094 L553.8267822265625,120.67340087890625 L552.3921508789062,122.76818084716797 L551.0806884765625,125.16171264648438 L549.9441528320312,127.73405456542969 L549.0230712890625,130.35324096679688 L548.3514404296875,132.87744140625 L547.95166015625,135.16574096679688 L547.8836669921875,137.07395935058594 L548.1602783203125,138.48973083496094 L548.7388916015625,139.3737030029297 L549.3579711914062,139.79989624023438 L549.8218994140625,139.92410278320312 M546.9920654296875,126.56465148925781 L547.3223266601562,126.75162506103516 L548.0994873046875,127.10745239257812 L549.4078369140625,127.61160278320312 L551.1800537109375,128.18310546875 L553.2647094726562,128.75428771972656 L555.4899291992188,129.27220153808594 L557.7031860351562,129.69894409179688 L559.7952270507812,129.97933959960938 L561.6348876953125,130.07528686523438 L563.124267578125,129.98867797851562 L564.1185913085938,129.82125854492188 L564.634765625,129.67013549804688 M563.3988037109375,131.59095764160156 L563.028076171875,131.8383331298828 L562.3927001953125,132.306396484375 L561.5540771484375,132.989013671875 L560.7023315429688,133.81454467773438 L559.9762573242188,134.72886657714844 L559.5159301757812,135.6673126220703 L559.4307861328125,136.5550994873047 L559.80859375,137.2915802001953 L560.6705932617188,137.76791381835938 L561.9789428710938,137.89822387695312 L563.612548828125,137.6249542236328 L565.3807373046875,136.9370574951172 L567.061279296875,135.86219787597656 L568.4440307617188,134.48428344726562 L569.3672485351562,132.9267120361328 L569.744873046875,131.34043884277344 L569.567626953125,129.8767547607422 L568.901123046875,128.66397094726562 L567.8682250976562,127.77665710449219 L566.6705932617188,127.28539276123047 L565.543212890625,127.19129943847656 L564.6884155273438,127.43711853027344 L564.193359375,127.80127716064453 L564.0047607421875,128.10833740234375 M571.1119384765625,130.52146911621094 L571.7648315429688,130.67422485351562 L572.6671142578125,130.94253540039062 L573.5955810546875,131.3067169189453 L574.2509765625,131.7173614501953 L574.6328125,132.1441192626953 L574.8133544921875,132.5670166015625 L574.9261474609375,132.97030639648438 L575.0211181640625,133.31210327148438 L575.1663818359375,133.5466766357422 L575.4219360351562,133.64141845703125 L575.8224487304688,133.55410766601562 L576.399658203125,133.27972412109375 L577.1749267578125,132.8310546875 L578.1235961914062,132.2251434326172 L579.205322265625,131.4960479736328 L580.3607177734375,130.68495178222656 L581.5133056640625,129.8187713623047 L582.6014404296875,128.93765258789062 L583.5790405273438,128.07064819335938 L584.4071655273438,127.2463607788086 L585.0679931640625,126.48933410644531 L585.5692138671875,125.8145980834961 L585.92041015625,125.24179077148438 L586.1463012695312,124.78945922851562 L586.2771606445312,124.4600830078125 L586.3436889648438,124.25121307373047 L586.3685913085938,124.14994812011719 L586.3768310546875,124.1423568725586 L586.3633422851562,124.22906494140625 L586.3275756835938,124.4091796875 L586.2674560546875,124.664306640625 L586.1983032226562,124.94478607177734 L586.1351928710938,125.19759368896484 L586.0921020507812,125.37995910644531 L586.0634155273438,125.46839141845703 L586.0452270507812,125.47356414794922 L586.026611328125,125.42738342285156 L586.0096435546875,125.34869384765625 L585.996826171875,125.2638931274414 L585.9861450195312,125.17970275878906 L585.9732055664062,125.09664916992188 L585.9575805664062,125.01053619384766 L585.9376220703125,124.93002319335938 L585.918701171875,124.8445816040039 L585.9054565429688,124.7625961303711 L585.899169921875,124.6775131225586 L585.8977661132812,124.59538269042969 L585.898193359375,124.51904296875 L585.8949584960938,124.45592498779297 L585.8876342773438,124.3946762084961 L585.8790893554688,124.33658599853516 L585.875244140625,124.27176666259766 L585.8784790039062,124.20362854003906 L585.8864135742188,124.14668273925781 L585.893310546875,124.10147094726562 L585.8930053710938,124.06565856933594 L585.88671875,124.03541564941406 L585.8768920898438,124.00363159179688 L585.8688354492188,123.96104431152344 L585.86572265625,123.91056060791016 L585.8678588867188,123.84738159179688 L585.8727416992188,123.77584838867188 L585.8798828125,123.70594024658203 L585.884521484375,123.64920043945312 L585.888427734375,123.59867858886719 L585.8925170898438,123.55001831054688 L585.8954467773438,123.5034408569336 L585.8971557617188,123.45555114746094 L585.898193359375,123.41122436523438 L585.8974609375,123.37326049804688 L585.8961181640625,123.33800506591797 L585.8961181640625,123.30054473876953 L585.8964233398438,123.26485443115234 L585.89697265625,123.23038482666016 L585.89697265625,123.20006561279297 L585.8970947265625,123.17103576660156 L585.8964233398438,123.14325714111328 L585.8963623046875,123.11293029785156 L585.8973999023438,123.07942199707031 L585.8994140625,123.04591369628906 L585.9004516601562,123.01481628417969 L585.9005126953125,122.98723602294922 L585.8983764648438,122.96759033203125 L585.8936767578125,122.9560775756836 L585.8876342773438,122.9474105834961 L585.8818969726562,122.93561553955078 L585.8762817382812,122.91859436035156 L585.8740844726562,122.89066314697266 L585.8762817382812,122.85379028320312 L585.8839721679688,122.8083724975586 L585.8966064453125,122.757080078125 L585.9119873046875,122.70510864257812 L585.9240112304688,122.664306640625 L585.9327392578125,122.63054656982422 L585.9362182617188,122.60460662841797 L585.93603515625,122.58348846435547 L585.933349609375,122.56648254394531 L585.9283447265625,122.55657196044922 L585.920654296875,122.55658721923828 L585.9105834960938,122.55976867675781 L585.9050903320312,122.55712890625 L585.9093017578125,122.5420913696289 L585.922607421875,122.51569366455078 L585.94140625,122.48307037353516 L585.9594116210938,122.45165252685547 L585.9671630859375,122.42691802978516 L585.9711303710938,122.40596008300781 L585.9742431640625,122.38538360595703 L585.9755249023438,122.36749267578125 L585.9764404296875,122.34788513183594 L585.977783203125,122.3243408203125 L585.9766235351562,122.29962158203125 L585.974853515625,122.27880859375 L585.975830078125,122.25550842285156 L585.9801025390625,122.2279052734375 L585.990966796875,122.18919372558594 L586.0089111328125,122.13878631591797 L586.0302734375,122.0858154296875 L586.0482788085938,122.04386901855469 L586.0630493164062,122.00979614257812 L586.0759887695312,121.9749755859375 L586.0906982421875,121.93462371826172 L586.1083984375,121.88694763183594 L586.1296997070312,121.8348617553711 L586.1497802734375,121.78948211669922 L586.1646728515625,121.756103515625 L586.1752319335938,121.72640228271484 L586.1825561523438,121.70111083984375 L586.1885986328125,121.67433166503906 L586.1959228515625,121.64432525634766 L586.20361328125,121.61522674560547 L586.2103881835938,121.5886001586914 L586.2171020507812,121.5616455078125 L586.2221069335938,121.53981018066406 L586.2260131835938,121.51937866210938 L586.2284545898438,121.50154876708984 L586.2298583984375,121.48550415039062 L586.2318115234375,121.46656036376953 L586.2357788085938,121.44268798828125 L586.2400512695312,121.42005157470703 L586.24560546875,121.39501190185547 L586.2520141601562,121.36869812011719 L586.25732421875,121.34598541259766 L586.2606201171875,121.32469177246094 L586.2634887695312,121.30274200439453 L586.265380859375,121.28229522705078 L586.2683715820312,121.25909423828125 L586.2737426757812,121.23140716552734 L586.2802734375,121.20409393310547 L586.2869873046875,121.17670440673828 L586.292236328125,121.15169525146484 L586.2978515625,121.1323471069336 L586.3038330078125,121.1190414428711 L586.3099365234375,121.10807800292969 L586.31640625,121.0947494506836 L586.3226318359375,121.07400512695312 L586.326171875,121.04586029052734 L586.3314819335938,121.01530456542969 L586.3375854492188,120.98824310302734 L586.342529296875,120.96674346923828 L586.3466186523438,120.94817352294922 L586.3497314453125,120.9294204711914 L586.3511352539062,120.90973663330078 L586.3532104492188,120.88880157470703 L586.3551025390625,120.87016296386719 L586.3572998046875,120.85045623779297 L586.3613891601562,120.8261947631836 L586.3671875,120.7982406616211 L586.3720703125,120.77361297607422 L586.3739624023438,120.75498962402344 L586.3710327148438,120.74913787841797 L586.365478515625,120.74845123291016 L586.3602294921875,120.74543762207031 L586.3577270507812,120.73355102539062 L586.359130859375,120.7112808227539 L586.364013671875,120.68151092529297 L586.3705444335938,120.65270233154297 L586.3779296875,120.62471008300781 L586.3856201171875,120.59793090820312 L586.3937377929688,120.56981658935547 L586.4019775390625,120.54109954833984 L586.4082641601562,120.51470947265625 L586.4125366210938,120.49076080322266 L586.4149169921875,120.46870422363281 L586.4172973632812,120.44459533691406 L586.42138671875,120.41639709472656 L586.4271240234375,120.38768768310547 L586.4342651367188,120.35784149169922 L586.4437866210938,120.32514953613281 L586.454345703125,120.29308319091797 L586.4661865234375,120.25859832763672 L586.4783935546875,120.22314453125 L586.4886474609375,120.19229888916016 L586.49609375,120.16493225097656 L586.5008544921875,120.13961791992188 L586.5025634765625,120.11700439453125 L586.5023193359375,120.09556579589844 L586.501220703125,120.07402038574219 L586.4998168945312,120.05492401123047 L586.499755859375,120.03498840332031 L586.50048828125,120.01512908935547 L586.503662109375,119.99337768554688 L586.508544921875,119.97300720214844 L586.5159912109375,119.94944763183594 L586.526611328125,119.92050170898438 L586.5391235351562,119.88679504394531 L586.5487060546875,119.85480499267578 L586.5569458007812,119.8226089477539 L586.5628051757812,119.79438781738281 L586.5689086914062,119.76425170898438 L586.577392578125,119.72944641113281 L586.586181640625,119.69554901123047 L586.5917358398438,119.66822052001953 L586.5939331054688,119.64892578125 L586.5912475585938,119.64176940917969 L586.5865478515625,119.63845825195312 L586.5816650390625,119.63229370117188 L586.578125,119.61866760253906 L586.5772705078125,119.59500885009766 L586.5800170898438,119.56312561035156 L586.5845336914062,119.53250122070312 L586.5949096679688,119.49707794189453 L586.6112060546875,119.45697021484375 L586.6321411132812,119.41297149658203 L586.6521606445312,119.37223815917969 L586.668701171875,119.33887481689453 L586.67626953125,119.31948852539062 L586.6798095703125,119.30279541015625 L586.6820068359375,119.28272247314453 L586.6848754882812,119.2552261352539 L586.6864013671875,119.22553253173828 L586.6907348632812,119.19305419921875 L586.6954345703125,119.16214752197266 L586.705322265625,119.12751770019531 L586.720458984375,119.088623046875 L586.7411499023438,119.04346466064453 L586.7635498046875,118.9962158203125 L586.7849731445312,118.95152282714844 L586.798095703125,118.91619873046875 L586.8060302734375,118.88471984863281 L586.8093872070312,118.85669708251953 L586.8125,118.82588958740234 L586.81689453125,118.79279327392578 L586.8207397460938,118.76538848876953 L586.8201293945312,118.74998474121094 L586.8174438476562,118.74100494384766 L586.8116455078125,118.73548889160156 L586.8084106445312,118.72089385986328 L586.8116455078125,118.6917953491211 L586.8232421875,118.64987182617188 L586.8421630859375,118.60234832763672 L586.8634643554688,118.55604553222656 L586.880859375,118.51708984375 L586.8966064453125,118.48072814941406 L586.9100341796875,118.44601440429688 L586.92724609375,118.40465545654297 L586.9501953125,118.3559341430664 L586.9752197265625,118.30438232421875 L587.000244140625,118.25218200683594 L587.0240478515625,118.2013931274414 L587.0401000976562,118.16016387939453 L587.0533447265625,118.12079620361328 L587.0639038085938,118.08395385742188 L587.0711669921875,118.05171203613281 L587.075927734375,118.02149963378906 L587.0797729492188,117.9907455444336 L587.0806884765625,117.9646224975586 L587.081787109375,117.93710327148438 L587.086669921875,117.90414428710938 L587.098388671875,117.86538696289062 L587.1158447265625,117.82184600830078 L587.138427734375,117.77285766601562 L587.1607666015625,117.72671508789062 L587.1758422851562,117.68930053710938 L587.1859130859375,117.65458679199219 L587.19287109375,117.62124633789062 L587.197265625,117.5897216796875 L587.2018432617188,117.55477142333984 L587.2068481445312,117.51856994628906 L587.2105712890625,117.48613739013672 L587.2138671875,117.4546127319336 L587.219482421875,117.42129516601562 L587.23095703125,117.38300323486328 L587.2493896484375,117.33792877197266 L587.2724609375,117.29003143310547 L587.2955932617188,117.24385070800781 L587.3115234375,117.2046127319336 L587.3220825195312,117.16680908203125 L587.330810546875,117.12677001953125 L587.3365478515625,117.08911895751953 L587.3405151367188,117.05955505371094 L587.3485717773438,117.0374526977539 L587.3644409179688,117.02070617675781 L587.3917846679688,116.99972534179688 L587.4256591796875,116.97350311279297 L587.4530029296875,116.9433822631836 L587.466552734375,116.91671752929688 L587.4708251953125,116.88995361328125 L587.47216796875,116.8601303100586 L587.4752197265625,116.82878875732422 L587.4797973632812,116.80075073242188 L587.4837646484375,116.77225494384766 L587.4857177734375,116.74617767333984 L587.4876708984375,116.71971130371094 L587.4906005859375,116.6904067993164 L587.49365234375,116.66252136230469 L587.4952392578125,116.63670349121094 L587.4961547851562,116.61006164550781 L587.4959716796875,116.58563232421875 L587.4942626953125,116.56959533691406 L587.4896850585938,116.56039428710938 L587.4874877929688,116.55957794189453 L587.490478515625,116.55924224853516 L587.498779296875,116.5516357421875 L587.5089111328125,116.5353775024414 L587.515869140625,116.51081085205078 L587.5133666992188,116.47911834716797 L587.5100708007812,116.44805908203125 L587.51025390625,116.41499328613281 L587.5152587890625,116.380859375 L587.523193359375,116.347900390625 L587.53125,116.31422424316406 L587.5350952148438,116.28022766113281 L587.5386962890625,116.2459487915039 L587.5426025390625,116.20973205566406 L587.547119140625,116.17395782470703 L587.5521240234375,116.1382827758789 L587.556640625,116.10546112060547 L587.5584106445312,116.07862091064453 L587.5599975585938,116.05465698242188 L587.5615234375,116.03668212890625 L587.5704345703125,116.01531982421875 L587.59033203125,115.98240661621094 L587.6179809570312,115.93948364257812 L587.643798828125,115.8967056274414 L587.6619873046875,115.8622817993164 L587.6639404296875,115.84581756591797 L587.65869140625,115.83476257324219 L587.6522216796875,115.82148742675781 L587.6490478515625,115.7977523803711 L587.6491088867188,115.76600646972656 L587.653076171875,115.731201171875 L587.656494140625,115.69830322265625 L587.6624755859375,115.66322326660156 L587.669189453125,115.62992095947266 L587.677490234375,115.59349822998047 L587.6854858398438,115.55583953857422 L587.6943359375,115.51564025878906 L587.7032470703125,115.4742202758789 L587.712158203125,115.43263244628906 L587.7196044921875,115.39476013183594 L587.7264404296875,115.35760498046875 L587.7314453125,115.324462890625 L587.7362670898438,115.29067993164062 L587.740966796875,115.2563705444336 L587.7457275390625,115.2225341796875 L587.750244140625,115.18790435791016 L587.755126953125,115.15219116210938 L587.759033203125,115.12288665771484 L587.76171875,115.10013580322266 L587.7606811523438,115.08881378173828 L587.759765625,115.08415985107422 L587.760986328125,115.07786560058594 L587.766845703125,115.0614242553711 L587.7753295898438,115.03614044189453 L587.7874145507812,114.9995346069336 L587.80029296875,114.95994567871094 L587.819580078125,114.91638946533203 L587.841796875,114.87094116210938 L587.868408203125,114.82260131835938 L587.8922729492188,114.77831268310547 L587.9146728515625,114.73302459716797 L587.9335327148438,114.69035339355469 L587.9492797851562,114.6478500366211 L587.9609985351562,114.60222625732422 L587.9783935546875,114.5505142211914 L587.9993896484375,114.50010681152344 L588.0258178710938,114.44853973388672 L588.0520629882812,114.402099609375 L588.0703735351562,114.36180114746094 L588.08056640625,114.3236312866211 L588.08837890625,114.28356170654297 L588.0942993164062,114.24645233154297 L588.1014404296875,114.20748901367188 L588.10888671875,114.17020416259766 L588.1156005859375,114.13245391845703 L588.1207275390625,114.09671783447266 L588.12890625,114.05707550048828 L588.1410522460938,114.01641082763672 L588.1591796875,113.96929931640625 L588.1807250976562,113.92098999023438 L588.202880859375,113.87014770507812 L588.2177734375,113.8263931274414 L588.2301025390625,113.78276062011719 L588.239501953125,113.74185943603516 L588.2484130859375,113.70079040527344 L588.2552490234375,113.66716766357422 L588.2606201171875,113.63670349121094 L588.261474609375,113.6136703491211 L588.2623291015625,113.58773803710938 L588.2640380859375,113.55598449707031 L588.2666625976562,113.52034759521484 L588.2705078125,113.48861694335938 L588.2789306640625,113.45740509033203 L588.291015625,113.43023681640625 L588.3067626953125,113.40283203125 L588.322509765625,113.37812805175781 L588.3311767578125,113.35991668701172 L588.3330078125,113.34525299072266 L588.33154296875,113.32511901855469 L588.329345703125,113.2979736328125 L588.3300170898438,113.26173400878906 L588.3334350585938,113.2262954711914 L588.337890625,113.19232177734375 L588.343017578125,113.15916442871094 L588.3494873046875,113.1224365234375 L588.3564453125,113.08399963378906 L588.3645629882812,113.04093933105469 L588.373291015625,112.998291015625 L588.3826293945312,112.95458984375 L588.390625,112.9151840209961 L588.396728515625,112.88469696044922 L588.3989868164062,112.86463165283203 L588.3988037109375,112.84868621826172 L588.3980102539062,112.82882690429688 L588.3985595703125,112.79884338378906 L588.4003295898438,112.76403045654297 L588.4030151367188,112.73242950439453 L588.4033203125,112.70452880859375 L588.406982421875,112.67880249023438 L588.417236328125,112.6480712890625 L588.435546875,112.60801696777344 L588.4575805664062,112.56583404541016 L588.4821166992188,112.51925659179688 L588.501708984375,112.47003173828125 L588.5233154296875,112.41817474365234 L588.545166015625,112.36679077148438 L588.5670776367188,112.31573486328125 L588.5823364257812,112.2733383178711 L588.595703125,112.23037719726562 L588.603759765625,112.1901626586914 L588.6128540039062,112.14678192138672 L588.6213989257812,112.1062240600586 L588.6309814453125,112.06414794921875 L588.6382446289062,112.0262222290039 L588.6471557617188,111.98573303222656 L588.655517578125,111.94633483886719 L588.6641845703125,111.90737915039062 L588.6705932617188,111.875 L588.6760864257812,111.8435287475586 L588.67919921875,111.81647491455078 L588.6823120117188,111.78572082519531 L588.6859741210938,111.75068664550781 L588.6915893554688,111.71353149414062 L588.697998046875,111.6753158569336 L588.7054443359375,111.63818359375 L588.711669921875,111.60779571533203 L588.7166748046875,111.57965850830078 L588.7203369140625,111.55091094970703 L588.72412109375,111.51786804199219 L588.72802734375,111.48209381103516 L588.7320556640625,111.44892883300781 L588.73486328125,111.42029571533203 L588.7369384765625,111.3929214477539 L588.7393798828125,111.359619140625 L588.7423095703125,111.32597351074219 L588.7448120117188,111.3006820678711 " fill="none" stroke="black" stroke-linecap="round" stroke-width="2" /><path d="M0,0 M445.1938781738281,168.74801635742188 L445.1712646484375,168.71676635742188 L445.147216796875,168.81185913085938 L445.12249755859375,169.1959228515625 L445.0962219238281,170.01805114746094 L445.0467834472656,171.32456970214844 L444.97857666015625,173.08509826660156 L444.8911437988281,175.207763671875 L444.8049011230469,177.58255004882812 L444.7398376464844,180.094970703125 L444.7252197265625,182.6085205078125 L444.7734680175781,184.97032165527344 L444.88818359375,186.967529296875 L445.04364013671875,188.4133758544922 L445.2041931152344,189.21591186523438 L445.3248291015625,189.50265502929688 L445.3944396972656,189.49581909179688 M437.3203125,168.1795654296875 L437.3265380859375,168.03314208984375 L437.5733947753906,167.79937744140625 L438.26043701171875,167.50814819335938 L439.54156494140625,167.20521545410156 L441.41217041015625,166.90521240234375 L443.76690673828125,166.5974884033203 L446.4479675292969,166.27108764648438 L449.28277587890625,165.93446350097656 L452.0702209472656,165.60963439941406 L454.61871337890625,165.3218994140625 L456.76800537109375,165.10806274414062 L458.32196044921875,165.0 L459.17462158203125,165.01565551757812 L459.3244934082031,165.1544189453125 L459.0705261230469,165.33230590820312 L458.7200622558594,165.4805145263672 M442.4288330078125,177.75686645507812 L442.8060302734375,177.7648468017578 L443.61175537109375,177.67637634277344 L444.8849182128906,177.4441680908203 L446.5704040527344,177.06777954101562 L448.53131103515625,176.65467834472656 L450.570068359375,176.30276489257812 L452.2164306640625,176.08035278320312 L453.2473449707031,175.97982788085938 M462.686767578125,178.269775390625 L462.51129150390625,177.990234375 L462.1215515136719,177.56057739257812 L461.458251953125,177.10279846191406 L460.52410888671875,176.8319549560547 L459.35064697265625,176.8950653076172 L458.02734375,177.39346313476562 L456.6831359863281,178.3412322998047 L455.4779052734375,179.68936157226562 L454.56927490234375,181.31948852539062 L454.08514404296875,183.0581512451172 L454.0870056152344,184.70016479492188 L454.5668029785156,186.04376220703125 L455.45574951171875,186.9185791015625 L456.6456298828125,187.2152099609375 L458.01849365234375,186.8902130126953 L459.45916748046875,185.9720916748047 L460.8536376953125,184.55618286132812 L462.09759521484375,182.79832458496094 L463.1148681640625,180.9050750732422 L463.86077880859375,179.1045684814453 L464.3353271484375,177.585693359375 L464.5711975097656,176.48593139648438 L464.62408447265625,175.8826446533203 L464.5564880371094,175.8086395263672 L464.4308776855469,176.27215576171875 L464.29534912109375,177.2545623779297 L464.1903076171875,178.65980529785156 L464.1510925292969,180.3468780517578 L464.2200622558594,182.14195251464844 L464.4175720214844,183.86447143554688 L464.73974609375,185.37083435058594 L465.195068359375,186.5117645263672 L465.7611999511719,187.18215942382812 L466.40728759765625,187.36582946777344 L466.97265625,187.2543487548828 L467.3523864746094,187.051025390625 M475.6519470214844,176.99122619628906 L475.5049743652344,176.74456787109375 L475.1636047363281,176.43260192871094 L474.5710754394531,176.2032470703125 L473.7391662597656,176.26235961914062 L472.72137451171875,176.70132446289062 L471.6186218261719,177.54495239257812 L470.56829833984375,178.74453735351562 L469.7132873535156,180.20408630371094 L469.18701171875,181.78195190429688 L469.0981750488281,183.32093811035156 L469.5036926269531,184.6719970703125 L470.4447937011719,185.69297790527344 L471.8408203125,186.31204223632812 L473.50286865234375,186.5228729248047 L474.9406433105469,186.4791717529297 L475.87164306640625,186.34837341308594 M479.8482360839844,182.40786743164062 L480.0060119628906,182.49066162109375 L480.38958740234375,182.5320281982422 L481.0689697265625,182.4319610595703 L482.03741455078125,182.09046936035156 L483.2312316894531,181.49488830566406 L484.52545166015625,180.6648406982422 L485.7760925292969,179.65921020507812 L486.8410339355469,178.55319213867188 L487.5904235839844,177.43336486816406 L487.9342041015625,176.40565490722656 L487.8296203613281,175.58139038085938 L487.28436279296875,175.06634521484375 L486.3644104003906,174.95358276367188 L485.1870422363281,175.30799865722656 L483.8996887207031,176.12655639648438 L482.6801452636719,177.351806640625 L481.7039489746094,178.86672973632812 L481.1221618652344,180.5261688232422 L481.0240783691406,182.17088317871094 L481.43499755859375,183.6552276611328 L482.3186340332031,184.85191345214844 L483.5977783203125,185.66885375976562 L485.16424560546875,186.06686401367188 L486.9571228027344,185.97943115234375 L488.8484802246094,185.41006469726562 L490.6977233886719,184.44253540039062 L492.1408996582031,183.466796875 L493.0160827636719,182.75717163085938 M498.5459289550781,174.28402709960938 L498.5523376464844,174.04901123046875 L498.3907775878906,173.7584686279297 L497.9375915527344,173.55052185058594 L497.1331787109375,173.59376525878906 L496.0909729003906,173.93463134765625 L494.996826171875,174.53701782226562 L494.0858154296875,175.3042449951172 L493.5682678222656,176.1455078125 L493.6034851074219,176.97433471679688 L494.2618103027344,177.7253875732422 L495.5243835449219,178.38040161132812 L497.2582092285156,178.9460906982422 L499.2564697265625,179.4659881591797 L501.27545166015625,179.99234008789062 L503.08038330078125,180.56134033203125 L504.48583984375,181.17852783203125 L505.38037109375,181.83131408691406 L505.7110595703125,182.4886932373047 L505.4800109863281,183.12220764160156 L504.73150634765625,183.69927978515625 L503.5523681640625,184.18588256835938 L502.07415771484375,184.5543212890625 L500.45660400390625,184.79283142089844 L498.8623352050781,184.8900909423828 L497.4392395019531,184.85226440429688 L496.2825012207031,184.69686889648438 L495.47137451171875,184.43788146972656 L495.0381774902344,184.11386108398438 L494.956787109375,183.77398681640625 L495.07012939453125,183.49893188476562 L495.231689453125,183.33038330078125 M520.2037963867188,175.5883026123047 L520.2052612304688,175.5596160888672 L520.207275390625,175.65306091308594 L520.2066040039062,176.02273559570312 L520.2035522460938,176.80767822265625 L520.202880859375,178.0467529296875 L520.2173461914062,179.70504760742188 L520.248291015625,181.69235229492188 L520.29541015625,183.9086456298828 L520.345703125,186.24070739746094 L520.388671875,188.54640197753906 L520.4190063476562,190.64735412597656 L520.4371337890625,192.3516082763672 L520.4463500976562,193.54647827148438 L520.4437255859375,194.20742797851562 L520.41943359375,194.36993408203125 L520.3670043945312,194.08566284179688 L520.291015625,193.36888122558594 L520.2005004882812,192.1802978515625 L520.124755859375,190.56179809570312 L520.088623046875,188.5958251953125 L520.116455078125,186.40301513671875 L520.234375,184.1191864013672 L520.4769287109375,181.8677520751953 L520.876953125,179.7318572998047 L521.474609375,177.81956481933594 L522.2973022460938,176.22103881835938 L523.3499755859375,175.01536560058594 L524.6063232421875,174.26133728027344 L526.0072021484375,173.99278259277344 L527.4654541015625,174.20455932617188 L528.8736572265625,174.84646606445312 L530.1190185546875,175.82608032226562 L531.096435546875,177.02206420898438 L531.7229614257812,178.30577087402344 L531.9404296875,179.5565948486328 L531.7296142578125,180.69033813476562 L531.0921630859375,181.627197265625 L530.0693969726562,182.31256103515625 L528.7494506835938,182.71714782714844 L527.259765625,182.837646484375 L525.7777709960938,182.71820068359375 L524.4878540039062,182.4584197998047 L523.5880737304688,182.19577026367188 L523.1100463867188,182.01800537109375 M541.5944213867188,176.47645568847656 L541.4577026367188,176.09181213378906 L541.135498046875,175.50071716308594 L540.5734252929688,174.83944702148438 L539.7691650390625,174.3389129638672 L538.7583618164062,174.1216278076172 L537.6181640625,174.27684020996094 L536.4579467773438,174.83114624023438 L535.3984375,175.7666473388672 L534.5687255859375,177.0068359375 L534.0751342773438,178.4061737060547 L533.9930419921875,179.78704833984375 L534.3526000976562,180.97071838378906 L535.1398315429688,181.80825805664062 L536.2811889648438,182.1908721923828 L537.6673583984375,182.06927490234375 L539.15869140625,181.44918823242188 L540.6082153320312,180.3980712890625 L541.8853759765625,179.0409393310547 L542.8997192382812,177.55181884765625 L543.5979614257812,176.1220245361328 L543.9812622070312,174.91632080078125 L544.0880737304688,174.04220581054688 L543.9895629882812,173.5626983642578 L543.7638549804688,173.5038604736328 L543.4873657226562,173.87942504882812 L543.226806640625,174.6795654296875 L543.0411376953125,175.8279266357422 L543.0118408203125,177.2113494873047 L543.1956787109375,178.6695556640625 L543.5985107421875,180.0359344482422 L544.0428466796875,181.05490112304688 L544.3851318359375,181.64633178710938 M555.3986206054688,173.3502960205078 L555.1588745117188,172.96798706054688 L554.6474609375,172.4490966796875 L553.8229370117188,171.96768188476562 L552.7588500976562,171.74903869628906 L551.5877685546875,171.83963012695312 L550.4840087890625,172.2060546875 L549.6376342773438,172.76730346679688 L549.2120971679688,173.46017456054688 L549.315673828125,174.2254638671875 L549.9993896484375,175.00564575195312 L551.2362670898438,175.76451110839844 L552.90185546875,176.4850311279297 L554.8120727539062,177.18983459472656 L556.7244873046875,177.89434814453125 L558.395263671875,178.59278869628906 L559.6339721679688,179.25392150878906 L560.3197631835938,179.83851623535156 L560.4071044921875,180.31593322753906 L559.9318237304688,180.687744140625 L558.9647216796875,180.95445251464844 L557.6181640625,181.11512756347656 L556.04833984375,181.1731719970703 L554.4271240234375,181.14434814453125 L552.9636840820312,181.02577209472656 L551.8467407226562,180.82945251464844 L551.1841430664062,180.57217407226562 L550.913330078125,180.3324432373047 L550.8864135742188,180.16372680664062 M568.62939453125,172.167724609375 L568.4678344726562,171.82846069335938 L568.0565185546875,171.3590087890625 L567.3184814453125,170.90182495117188 L566.2758178710938,170.65122985839844 L565.0548095703125,170.6536865234375 L563.8475952148438,170.90394592285156 L562.8750610351562,171.3550567626953 L562.3404541015625,171.97686767578125 L562.3922119140625,172.7240447998047 L563.1012573242188,173.53550720214844 L564.453125,174.3599395751953 L566.3211669921875,175.16246032714844 L568.489990234375,175.9392547607422 L570.689208984375,176.69125366210938 L572.6531982421875,177.41281127929688 L574.173583984375,178.0775909423828 L575.1278076171875,178.6636199951172 L575.4613037109375,179.15138244628906 L575.1791381835938,179.54156494140625 L574.3253784179688,179.82931518554688 L572.9947509765625,180.0155792236328 L571.3305053710938,180.10227966308594 L569.507568359375,180.10040283203125 L567.6741943359375,180.00669860839844 L565.9791259765625,179.83392333984375 L564.532470703125,179.6043701171875 L563.5146484375,179.39276123046875 L562.9535522460938,179.24916076660156 " fill="none" stroke="black" stroke-linecap="round" stroke-width="2" /><path d="M0,0 M425.50103759765625,228.680419921875 M425.2940673828125,229.328857421875 L425.1808166503906,229.87559509277344 L424.9427490234375,230.93946838378906 L424.54779052734375,232.56300354003906 L424.00054931640625,234.63185119628906 L423.3101501464844,237.06126403808594 L422.5264587402344,239.72760009765625 L421.71197509765625,242.4685516357422 L420.9517517089844,245.06185913085938 L420.3263854980469,247.2744140625 L419.9111022949219,248.80679321289062 L419.69989013671875,249.62156677246094 M425.24981689453125,228.77137756347656 L425.3116149902344,228.82569885253906 L425.4281311035156,229.18679809570312 L425.602294921875,230.05191040039062 L425.82537841796875,231.5163116455078 L426.10101318359375,233.4841766357422 L426.4303894042969,235.79786682128906 L426.80908203125,238.2819366455078 L427.2220764160156,240.8059844970703 L427.63214111328125,243.1969451904297 L427.9979248046875,245.275634765625 L428.2600402832031,246.745361328125 L428.4032897949219,247.5477294921875 M421.6583251953125,240.83050537109375 L421.8148193359375,240.7099151611328 L422.2400817871094,240.51495361328125 L423.01336669921875,240.274169921875 L424.1885986328125,240.03457641601562 L425.69110107421875,239.81044006347656 L427.3722839355469,239.60296630859375 L428.7903137207031,239.43885803222656 L429.708251953125,239.33511352539062 M434.2708435058594,237.71092224121094 L434.18963623046875,238.0058135986328 L434.0373229980469,238.65440368652344 L433.8154602050781,239.71743774414062 L433.5556640625,241.13052368164062 L433.2898864746094,242.77894592285156 L433.05535888671875,244.48709106445312 L432.87677001953125,246.05532836914062 L432.75482177734375,247.3097686767578 L432.6759033203125,248.1094512939453 L432.627685546875,248.36331176757812 L432.6160583496094,248.04954528808594 L432.6751708984375,247.17172241210938 L432.8475341796875,245.79660034179688 L433.16876220703125,244.0813751220703 L433.65911865234375,242.21710205078125 L434.32171630859375,240.39505004882812 L435.1360778808594,238.7849578857422 L436.0728759765625,237.5002899169922 L437.0816955566406,236.629638671875 L438.0985412597656,236.24771118164062 L439.0415954589844,236.38624572753906 L439.83544921875,237.0323944091797 L440.4146728515625,238.125732421875 L440.7518615722656,239.5674285888672 L440.8610534667969,241.2284393310547 L440.7873840332031,242.96372985839844 L440.5850830078125,244.6217803955078 L440.3624267578125,246.0394287109375 L440.2184753417969,247.0853729248047 L440.2311706542969,247.6976776123047 L440.3480224609375,247.94964599609375 L440.48883056640625,247.98414611816406 M450.37152099609375,241.43637084960938 L450.34588623046875,241.00474548339844 L450.170166015625,240.35455322265625 L449.73870849609375,239.6331329345703 L448.989990234375,239.0938262939453 L447.9566650390625,238.8586883544922 L446.72796630859375,239.0127716064453 L445.43682861328125,239.5763702392578 L444.2201843261719,240.5435333251953 L443.2146301269531,241.8437042236328 L442.52972412109375,243.3520965576172 L442.23577880859375,244.9062957763672 L442.3555908203125,246.3308868408203 L442.87066650390625,247.4556427001953 L443.72357177734375,248.13534545898438 L444.83837890625,248.2564239501953 L446.1199645996094,247.74325561523438 L447.4725341796875,246.57180786132812 L448.8055114746094,244.78494262695312 L450.04345703125,242.49256896972656 L451.13037109375,239.8621063232422 L452.03607177734375,237.0908203125 L452.7485046386719,234.3776092529297 L453.27081298828125,231.90736389160156 L453.61505126953125,229.8294677734375 L453.79736328125,228.24905395507812 L453.83673095703125,227.2382049560547 L453.75250244140625,226.84393310546875 L453.56378173828125,227.09889221191406 L453.2929382324219,228.0218048095703 L452.971435546875,229.58045959472656 L452.6328125,231.6731414794922 L452.31243896484375,234.14683532714844 L452.04156494140625,236.81324768066406 L451.8448486328125,239.47772216796875 L451.7355041503906,241.9678497314453 L451.7464904785156,244.127197265625 L451.88916015625,245.82595825195312 L452.15472412109375,247.00323486328125 L452.4335021972656,247.66839599609375 L452.64288330078125,247.94302368164062 M466.4360046386719,228.13014221191406 L466.4542236328125,228.5046844482422 L466.432373046875,229.30445861816406 L466.3222961425781,230.5889434814453 L466.09228515625,232.28269958496094 L465.7620849609375,234.28915405273438 L465.37579345703125,236.49391174316406 L464.9769287109375,238.77903747558594 L464.603271484375,241.02865600585938 L464.284423828125,243.0839080810547 L464.04449462890625,244.79444885253906 L463.8985290527344,245.95944213867188 L463.8357849121094,246.57421875 M469.7854309082031,225.0 L469.79962158203125,225.21319580078125 L469.79376220703125,225.6977996826172 L469.72943115234375,226.48025512695312 L469.5984191894531,227.48497009277344 L469.4393310546875,228.5662841796875 L469.30621337890625,229.57212829589844 L469.2308654785156,230.3075408935547 L469.2139587402344,230.72412109375 M472.75347900390625,240.09352111816406 L472.6365966796875,240.8577423095703 L472.4395751953125,242.16477966308594 L472.1834716796875,243.87551879882812 L471.9217529296875,245.6065216064453 L471.68377685546875,247.1270751953125 L471.4857177734375,248.26658630371094 L471.3257751464844,248.94009399414062 L471.2084655761719,249.08285522460938 L471.14508056640625,248.67042541503906 L471.1714782714844,247.68603515625 L471.3514404296875,246.19955444335938 L471.7519226074219,244.38095092773438 L472.4205627441406,242.44285583496094 L473.35943603515625,240.60948181152344 L474.5108337402344,239.06394958496094 L475.77734375,237.9273223876953 L477.0494079589844,237.28512573242188 L478.2263488769531,237.18621826171875 L479.2270202636719,237.6278533935547 L479.98443603515625,238.55648803710938 L480.4464111328125,239.85736083984375 L480.59417724609375,241.37173461914062 L480.45330810546875,242.8958282470703 L480.1178894042969,244.2447967529297 L479.7127990722656,245.26194763183594 L479.3693542480469,245.83738708496094 L479.192138671875,245.9042510986328 L479.2491149902344,245.44216918945312 L479.5765075683594,244.45921325683594 L480.21087646484375,243.07272338867188 L481.1460876464844,241.45982360839844 L482.346923828125,239.8412628173828 L483.7069396972656,238.40957641601562 L485.0904846191406,237.3157196044922 L486.361328125,236.64309692382812 L487.42047119140625,236.45228576660156 L488.20684814453125,236.7650909423828 L488.7135314941406,237.5714569091797 L488.92852783203125,238.78477478027344 L488.87744140625,240.31112670898438 L488.625,241.97695922851562 L488.263671875,243.590087890625 L487.9389343261719,244.82156372070312 L487.7362060546875,245.54721069335938 M500.1011657714844,229.1300811767578 L500.09771728515625,229.2515411376953 L500.06646728515625,229.68443298339844 L499.97943115234375,230.59454345703125 L499.81329345703125,232.04722595214844 L499.5628967285156,233.97071838378906 L499.2346496582031,236.2263641357422 L498.8502197265625,238.64337158203125 L498.44036865234375,241.02658081054688 L498.0400390625,243.17037963867188 L497.6867370605469,244.88131713867188 L497.4178771972656,246.00802612304688 L497.2635192871094,246.464111328125 L497.2518310546875,246.24391174316406 L497.4162902832031,245.38059997558594 L497.796630859375,243.97203063964844 L498.4258117675781,242.1960906982422 L499.3133544921875,240.27728271484375 L500.42327880859375,238.44833374023438 L501.671875,236.9217071533203 L502.9501037597656,235.84556579589844 L504.14532470703125,235.3096160888672 L505.1614074707031,235.35157775878906 L505.9275817871094,235.95680236816406 L506.3948669433594,237.0609130859375 L506.54241943359375,238.5546417236328 L506.391845703125,240.29107666015625 L506.00079345703125,242.09922790527344 L505.50244140625,243.78097534179688 L505.0508728027344,245.1530303955078 L504.773193359375,246.0990447998047 L504.6746826171875,246.61172485351562 L504.69342041015625,246.7999267578125 M514.3112182617188,239.3146209716797 L514.2337036132812,238.8644256591797 L513.971435546875,238.25550842285156 L513.4323120117188,237.6930389404297 L512.5848999023438,237.4717559814453 L511.48858642578125,237.6973114013672 L510.2663269042969,238.40235900878906 L509.0865478515625,239.5201416015625 L508.1156005859375,240.95114135742188 L507.4999694824219,242.5263214111328 L507.3338623046875,244.0474853515625 L507.645751953125,245.3236083984375 L508.3984680175781,246.19728088378906 L509.5067138671875,246.55755615234375 L510.840576171875,246.35238647460938 L512.2432861328125,245.59225463867188 L513.5421142578125,244.3609619140625 L514.5774536132812,242.8118133544922 L515.2366333007812,241.14700317382812 L515.4808959960938,239.56707763671875 L515.34033203125,238.24581909179688 L514.9262084960938,237.28733825683594 L514.3832397460938,236.71307373046875 L513.9140625,236.4515380859375 L513.6209716796875,236.3852996826172 M518.697998046875,236.83480834960938 L518.9351806640625,236.83328247070312 L519.2102661132812,236.97714233398438 L519.393798828125,237.41250610351562 L519.3360595703125,238.26039123535156 L519.0514526367188,239.53765869140625 L518.594482421875,241.14295959472656 L518.0685424804688,242.87144470214844 L517.559814453125,244.47824096679688 L517.134521484375,245.7467498779297 L516.8322143554688,246.52186584472656 L516.6762084960938,246.73402404785156 L516.6738891601562,246.3646697998047 L516.8492431640625,245.42605590820312 L517.2347412109375,243.98974609375 L517.8521728515625,242.21337890625 L518.7070922851562,240.30563354492188 L519.7640380859375,238.4989013671875 L520.9461059570312,236.99497985839844 L522.1566162109375,235.93307495117188 L523.2943115234375,235.39695739746094 L524.2711791992188,235.4250030517578 L525.0252685546875,236.00254821777344 L525.5086669921875,237.06585693359375 L525.6903076171875,238.5008544921875 L525.56787109375,240.15208435058594 L525.1842041015625,241.81936645507812 L524.62646484375,243.30227661132812 L524.0138549804688,244.43264770507812 L523.4678344726562,245.08229064941406 L523.0846557617188,245.17477416992188 L522.9261474609375,244.6939239501953 L523.0432739257812,243.65643310546875 L523.4664916992188,242.16358947753906 L524.2012939453125,240.39964294433594 L525.2135009765625,238.58201599121094 L526.42041015625,236.92483520507812 L527.6898193359375,235.5995330810547 L528.8976440429688,234.703857421875 L529.934814453125,234.29229736328125 L530.7269897460938,234.39068603515625 L531.2340087890625,234.99148559570312 L531.447021484375,236.05076599121094 L531.364990234375,237.47215270996094 L531.0316162109375,239.11448669433594 L530.5257568359375,240.806396484375 L529.9588012695312,242.38088989257812 L529.4713745117188,243.7061004638672 L529.1558227539062,244.61830139160156 L529.0121459960938,245.10816955566406 M532.0765380859375,243.09339904785156 L532.32080078125,243.03311157226562 L532.8125,242.85231018066406 L533.5672607421875,242.48580932617188 L534.5123291015625,241.8957061767578 L535.5615234375,241.082763671875 L536.6031494140625,240.0824737548828 L537.525146484375,238.96401977539062 L538.2266845703125,237.81820678710938 L538.6163330078125,236.7497100830078 L538.635009765625,235.8721923828125 L538.263427734375,235.30654907226562 L537.5313720703125,235.15989685058594 L536.5247192382812,235.50640869140625 L535.3853759765625,236.3599090576172 L534.2747802734375,237.65155029296875 L533.3590698242188,239.24288940429688 L532.7826538085938,240.96353149414062 L532.6376342773438,242.635009765625 L532.9480590820312,244.1047821044922 L533.74755859375,245.2209014892578 L534.9674682617188,245.88784790039062 L536.4674072265625,246.0889892578125 L537.7977905273438,246.003662109375 L538.6859741210938,245.82598876953125 M541.54833984375,240.54818725585938 L541.7673950195312,240.5003204345703 L542.1962280273438,240.41082763671875 L542.8486938476562,240.2897186279297 L543.6862182617188,240.1625518798828 L544.6519775390625,240.05413818359375 L545.6392822265625,239.9686279296875 L546.4259033203125,239.91026306152344 L546.9056396484375,239.87734985351562 M552.8521728515625,229.22940063476562 L552.867919921875,229.27175903320312 L552.8677978515625,229.53904724121094 L552.8096923828125,230.18736267089844 L552.643310546875,231.30401611328125 L552.3458862304688,232.84234619140625 L551.924072265625,234.70216369628906 L551.412353515625,236.7410430908203 L550.8592529296875,238.826171875 L550.3130493164062,240.80856323242188 L549.8097534179688,242.53524780273438 L549.3833618164062,243.8782958984375 L549.0586547851562,244.74647521972656 L548.8534545898438,245.07484436035156 L548.784423828125,244.8560791015625 L548.8795166015625,244.10211181640625 L549.171142578125,242.88597106933594 L549.6951293945312,241.35423278808594 L550.4716186523438,239.69070434570312 L551.48876953125,238.08102416992188 L552.6947631835938,236.6998291015625 L554.01123046875,235.67494201660156 L555.327392578125,235.08987426757812 L556.5257568359375,234.98985290527344 L557.4923095703125,235.37135314941406 L558.1278686523438,236.18344116210938 L558.362548828125,237.3362274169922 L558.1676635742188,238.7149658203125 L557.5366821289062,240.17872619628906 L556.5123291015625,241.5874481201172 L555.18505859375,242.8173065185547 L553.6741333007812,243.77896118164062 L552.1527099609375,244.3834991455078 L550.8086547851562,244.6045379638672 L549.7879638671875,244.4771728515625 L549.170166015625,244.19876098632812 L548.9022216796875,243.94078063964844 M564.8807983398438,239.3931884765625 L564.8624877929688,238.92474365234375 L564.6793212890625,238.20733642578125 L564.2184448242188,237.39828491210938 L563.4199829101562,236.77560424804688 L562.3400268554688,236.4827423095703 L561.0782470703125,236.614990234375 L559.779541015625,237.1876220703125 L558.5924072265625,238.17544555664062 L557.6685791015625,239.4781494140625 L557.1409912109375,240.93727111816406 L557.099609375,242.359619140625 L557.5567626953125,243.55221557617188 L558.459716796875,244.35354614257812 L559.6919555664062,244.65817260742188 L561.0977783203125,244.4210968017578 L562.5076904296875,243.6666717529297 L563.7589111328125,242.4851531982422 L564.713134765625,241.0301055908203 L565.2882690429688,239.48941040039062 L565.4683227539062,238.05270385742188 L565.3271484375,236.87091064453125 L564.9983520507812,236.019775390625 L564.6705322265625,235.5190887451172 L564.452392578125,235.2974395751953 M569.513671875,236.3829803466797 L569.388427734375,236.5856475830078 L569.1286010742188,237.08804321289062 L568.7298583984375,237.97618103027344 L568.2539672851562,239.2232208251953 L567.7887573242188,240.70858764648438 L567.4524536132812,242.2627716064453 L567.328125,243.6956329345703 L567.4658203125,244.83152770996094 L567.8679809570312,245.53143310546875 L568.4986572265625,245.70599365234375 L569.30517578125,245.32054138183594 L570.243896484375,244.40460205078125 L571.2427978515625,243.05645751953125 L572.2434692382812,241.43145751953125 L573.1640014648438,239.73947143554688 L573.9307250976562,238.1978302001953 L574.4856567382812,236.97933959960938 L574.803466796875,236.2017059326172 L574.8802490234375,235.93409729003906 L574.751220703125,236.19810485839844 L574.440673828125,236.99783325195312 L574.0030517578125,238.2705535888672 L573.4947509765625,239.8722381591797 L573.020263671875,241.60748291015625 L572.6829833984375,243.24380493164062 L572.5569458007812,244.58261108398438 L572.58251953125,245.46656799316406 L572.673095703125,245.9098663330078 M578.4405517578125,237.25340270996094 L578.2828979492188,237.64443969726562 L577.978515625,238.46343994140625 L577.527099609375,239.72711181640625 L576.991455078125,241.2546844482422 L576.436279296875,242.8021697998047 L575.9414672851562,244.1428680419922 L575.5563354492188,245.10975646972656 L575.3126220703125,245.60914611816406 L575.2169799804688,245.5978546142578 L575.2738037109375,245.04827880859375 L575.5059814453125,243.97300720214844 L575.947265625,242.4840850830078 L576.6119384765625,240.7615966796875 L577.497314453125,239.02249145507812 L578.5618286132812,237.4703826904297 L579.73291015625,236.2508087158203 L580.928466796875,235.452880859375 L582.0519409179688,235.13302612304688 L583.0086669921875,235.30838012695312 L583.7173461914062,235.95819091796875 L584.114013671875,237.0143280029297 L584.1676025390625,238.37173461914062 L583.891357421875,239.89718627929688 L583.3807373046875,241.4564208984375 L582.7925415039062,242.90090942382812 L582.2944946289062,244.11013793945312 L581.9863891601562,244.9353485107422 L581.8641357421875,245.3710174560547 M592.5445556640625,241.21514892578125 L592.5996704101562,240.70916748046875 L592.5308227539062,239.9400177001953 L592.2023315429688,239.06875610351562 L591.5101318359375,238.37643432617188 L590.4786376953125,237.9916229248047 L589.1903686523438,238.0076904296875 L587.7784423828125,238.4514617919922 L586.3885498046875,239.32406616210938 L585.1799926757812,240.55052185058594 L584.2991333007812,241.98944091796875 L583.8445434570312,243.4542999267578 L583.8561401367188,244.74574279785156 L584.322021484375,245.67703247070312 L585.193115234375,246.09922790527344 L586.3920288085938,245.9084930419922 L587.8251953125,245.05673217773438 L589.3828125,243.56533813476562 L590.9580688476562,241.53289794921875 L592.457763671875,239.12245178222656 L593.8099365234375,236.54339599609375 L594.9593505859375,234.01560974121094 L595.8699340820312,231.75326538085938 L596.5303344726562,229.91226196289062 L596.9443969726562,228.59255981445312 L597.1265869140625,227.84857177734375 L597.0919799804688,227.7059783935547 L596.8467407226562,228.18113708496094 L596.3961181640625,229.29962158203125 L595.775146484375,231.01126098632812 L595.0344848632812,233.203369140625 L594.2413330078125,235.7073974609375 L593.4742431640625,238.32522583007812 L592.8087158203125,240.86363220214844 L592.3007202148438,243.1707305908203 L591.98876953125,245.1131591796875 L591.913330078125,246.53164672851562 L592.07177734375,247.3240509033203 L592.4334716796875,247.4832763671875 L592.8275146484375,247.27200317382812 L593.12548828125,246.9686737060547 " fill="none" stroke="black" stroke-linecap="round" stroke-width="2" /></svg>