<?xml version="1.0" encoding="utf-8" ?>
<svg baseProfile="full" height="100%" version="1.1" viewBox="0,0,1000,300" width="100%" xmlns="http://www.w3.org/2000/svg" xmlns:ev="http://www.w3.org/2001/xml-events" xmlns:xlink="http://www.w3.org/1999/xlink"><defs /><rect fill="white" height="300" width="1000" x="0" y="0" /><path d="M0,0 M312.91973876953125,48.40616226196289 L312.88714599609375,48.98664093017578 L312.81024169921875,50.173133850097656 L312.68743896484375,52.00507736206055 L312.5483703613281,54.33007049560547 L312.4405212402344,57.000267028808594 L312.39251708984375,59.862586975097656 L312.427734375,62.78825378417969 L312.54095458984375,65.61640930175781 L312.7052307128906,68.11113739013672 L312.8964538574219,70.06317901611328 L313.0592346191406,71.29733276367188 L313.1597900390625,71.87986755371094 M311.3094787597656,46.67926025390625 L311.3173522949219,46.88555145263672 L311.42474365234375,47.423377990722656 L311.7217102050781,48.36714172363281 L312.29718017578125,49.637779235839844 L313.19512939453125,51.03019714355469 L314.4343566894531,52.31793212890625 L315.9918212890625,53.29238510131836 L317.8146057128906,53.81243133544922 L319.8053283691406,53.80131912231445 L321.8501892089844,53.2484130859375 L323.81878662109375,52.215389251708984 L325.6099548339844,50.83287048339844 L327.1220703125,49.28023910522461 L328.2755126953125,47.7582893371582 L329.0421142578125,46.446693420410156 L329.4386901855469,45.49081802368164 L329.51214599609375,45.0 L329.3603820800781,45.0521240234375 L329.05084228515625,45.71436309814453 L328.62774658203125,47.03474426269531 L328.16229248046875,48.99063491821289 L327.70904541015625,51.4874267578125 L327.32684326171875,54.370933532714844 L327.0787353515625,57.4534912109375 L326.994873046875,60.52931594848633 L327.08465576171875,63.429359436035156 L327.32366943359375,65.99444580078125 L327.6690673828125,68.06673431396484 L328.0716552734375,69.53392028808594 L328.4801330566406,70.37532043457031 L328.8013916015625,70.7138900756836 L329.00494384765625,70.7618179321289 M339.9192810058594,59.63510513305664 L339.77532958984375,59.191776275634766 L339.40948486328125,58.557037353515625 L338.7548828125,57.9239387512207 L337.8131408691406,57.59660720825195 L336.6582946777344,57.72388458251953 L335.39312744140625,58.3773193359375 L334.16351318359375,59.529014587402344 L333.1268005371094,61.08436584472656 L332.44378662109375,62.867740631103516 L332.21435546875,64.66781616210938 L332.47625732421875,66.27286529541016 L333.1866455078125,67.49756622314453 L334.2606506347656,68.20732116699219 L335.5906066894531,68.31602478027344 L337.08184814453125,67.7822036743164 L338.6103820800781,66.64839172363281 L340.0628662109375,65.03294372558594 L341.3236389160156,63.145389556884766 L342.29473876953125,61.25212097167969 L342.92047119140625,59.6037712097168 L343.2030029296875,58.38466262817383 L343.17694091796875,57.723228454589844 L342.9341125488281,57.66747283935547 L342.57647705078125,58.22987747192383 L342.207763671875,59.38697052001953 L341.9287109375,61.027183532714844 L341.8155822753906,62.969573974609375 L341.94525146484375,64.9963150024414 L342.34375,66.85282135009766 L342.97674560546875,68.3321762084961 L343.6026916503906,69.28768157958984 L344.0526123046875,69.75048828125 M348.8384094238281,48.372718811035156 L348.8401794433594,48.55571365356445 L348.8372497558594,49.12529754638672 L348.8298034667969,50.248836517333984 L348.82708740234375,51.95692443847656 L348.8548583984375,54.13499450683594 L348.92132568359375,56.613040924072266 L349.036376953125,59.193641662597656 L349.20391845703125,61.68518829345703 L349.4307556152344,63.897621154785156 L349.73590087890625,65.65210723876953 L350.1549987792969,66.82121276855469 L350.759521484375,67.3033218383789 L351.5720520019531,67.1208267211914 L352.5552062988281,66.40737915039062 L353.4330749511719,65.5838623046875 L354.0235595703125,64.9613037109375 M355.78021240234375,60.3035888671875 L355.3218994140625,60.24395751953125 L354.49560546875,60.29169845581055 L353.3692626953125,60.56747055053711 L352.1872863769531,61.16535949707031 L351.1458740234375,62.050819396972656 L350.4244384765625,63.12812042236328 L350.14306640625,64.26700592041016 L350.3768615722656,65.35054016113281 L351.14141845703125,66.26071166992188 L352.4158020019531,66.90760040283203 L354.0973205566406,67.22249603271484 L356.0456237792969,67.16888427734375 L358.091064453125,66.7471694946289 L360.0660400390625,65.98613739013672 L361.83380126953125,64.94080352783203 L363.3182373046875,63.70710754394531 L364.4566650390625,62.41804504394531 L365.24578857421875,61.22548294067383 L365.7052001953125,60.274436950683594 L365.8753662109375,59.68580627441406 L365.823486328125,59.541866302490234 L365.64324951171875,59.885353088378906 L365.4095153808594,60.71612548828125 L365.22662353515625,61.957603454589844 L365.17913818359375,63.45196533203125 L365.3233337402344,65.01517486572266 L365.6996154785156,66.40985870361328 L366.2801208496094,67.43523406982422 L366.978515625,67.98582458496094 L367.58709716796875,68.1539535522461 L367.98211669921875,68.10696411132812 M366.16845703125,52.10200500488281 L366.1785583496094,52.15024948120117 L366.2254638671875,52.28924560546875 L366.28936767578125,52.46419906616211 L366.350341796875,52.62030792236328 M372.22515869140625,59.71764373779297 L372.2632751464844,60.22020721435547 L372.29388427734375,61.15910339355469 L372.30255126953125,62.503318786621094 L372.2832336425781,64.03369140625 L372.2573547363281,65.55889129638672 L372.257568359375,66.87751770019531 L372.30096435546875,67.84667205810547 L372.4097900390625,68.34647369384766 L372.615234375,68.31755065917969 L372.95635986328125,67.73711395263672 L373.4689025878906,66.64775085449219 L374.1790771484375,65.18060302734375 L375.0855712890625,63.538814544677734 L376.1695556640625,61.93311309814453 L377.3697204589844,60.5662727355957 L378.6139831542969,59.58042907714844 L379.83392333984375,59.057594299316406 L380.9617919921875,59.037601470947266 L381.9526062011719,59.50263595581055 L382.77783203125,60.440528869628906 L383.41314697265625,61.75077438354492 L383.8690185546875,63.2655029296875 L384.1481628417969,64.55936431884766 L384.28326416015625,65.39554595947266 M394.636962890625,61.7747688293457 L394.50152587890625,61.29448699951172 L394.1283264160156,60.64949417114258 L393.43609619140625,60.057308197021484 L392.4410400390625,59.81833267211914 L391.2711486816406,60.0134162902832 L390.1183166503906,60.63215637207031 L389.19366455078125,61.56344985961914 L388.65875244140625,62.68101119995117 L388.619140625,63.81662368774414 L389.0845947265625,64.80412292480469 L390.00933837890625,65.5055923461914 L391.2750244140625,65.82637786865234 L392.7326965332031,65.72602081298828 L394.20648193359375,65.22547149658203 L395.5526123046875,64.3994369506836 L396.6480712890625,63.3721923828125 L397.4423828125,62.29236602783203 L397.91815185546875,61.30078887939453 L398.1091613769531,60.51383972167969 L398.05316162109375,60.03013610839844 L397.81390380859375,59.928375244140625 L397.4740905761719,60.27102279663086 L397.1341552734375,61.093204498291016 L396.9027099609375,62.37038803100586 L396.8865966796875,64.02452087402344 L397.1334228515625,65.95451354980469 L397.64764404296875,68.0467300415039 L398.38800048828125,70.1882553100586 L399.27410888671875,72.27169799804688 L400.224609375,74.1905517578125 L401.1358947753906,75.84675598144531 L401.89630126953125,77.17015075683594 L402.3970642089844,78.11992645263672 L402.5459899902344,78.68120574951172 L402.2996826171875,78.85855102539062 L401.6859436035156,78.67919158935547 L400.7493896484375,78.1817398071289 L399.5897216796875,77.42704772949219 L398.3157653808594,76.50042724609375 L397.04486083984375,75.49872589111328 L395.9087829589844,74.50434875488281 L395.0345458984375,73.58512115478516 L394.49908447265625,72.77494049072266 L394.3873291015625,72.08087921142578 L394.75738525390625,71.49337005615234 L395.6463623046875,70.99829864501953 L397.0516357421875,70.57939910888672 L398.9704895019531,70.19505310058594 L401.2442932128906,69.80557250976562 L403.6535339355469,69.37876892089844 L405.61761474609375,69.00167846679688 L406.84307861328125,68.73822784423828 M422.09326171875,59.38730239868164 L422.06744384765625,59.433231353759766 L422.02325439453125,59.69634246826172 L421.9683837890625,60.32418441772461 L421.9146728515625,61.398460388183594 L421.8721008300781,62.85386657714844 L421.8921203613281,64.53382110595703 L421.9874267578125,66.21663665771484 L422.1485595703125,67.70072937011719 L422.34783935546875,68.82087707519531 L422.5432434082031,69.45512390136719 L422.7212219238281,69.51793670654297 L422.9505310058594,68.96749877929688 L423.30804443359375,67.80311584472656 L423.8596496582031,66.14507293701172 L424.6505126953125,64.20157623291016 L425.67584228515625,62.222129821777344 L426.88201904296875,60.44349670410156 L428.20458984375,59.04897689819336 L429.5657043457031,58.14600372314453 L430.885009765625,57.8029899597168 L432.1007080078125,58.0374641418457 L433.16461181640625,58.81361770629883 L434.0350341796875,60.036285400390625 L434.70281982421875,61.55628967285156 L435.1780090332031,63.161399841308594 L435.4805908203125,64.63323974609375 L435.64996337890625,65.78347778320312 L435.74505615234375,66.47257995605469 L435.8460693359375,66.61840057373047 L436.0728759765625,66.19991302490234 L436.52862548828125,65.23433685302734 L437.2664794921875,63.83582305908203 L438.2978515625,62.200843811035156 L439.55181884765625,60.55900955200195 L440.88568115234375,59.12044906616211 L442.13232421875,58.04661178588867 L443.1298522949219,57.43143844604492 L443.779541015625,57.33479309082031 L444.10430908203125,57.77471923828125 L444.18438720703125,58.72702407836914 L444.1336364746094,60.09267807006836 L444.07598876953125,61.70899963378906 L444.122802734375,63.380889892578125 L444.40301513671875,64.86589813232422 L444.9788513183594,65.94905853271484 L445.8162841796875,66.52413940429688 L446.62164306640625,66.69288635253906 L447.1868896484375,66.6395034790039 M450.1163330078125,58.63481521606445 L450.02008056640625,58.56516647338867 L449.95556640625,58.54810333251953 L450.01446533203125,58.68976974487305 L450.2987365722656,59.09376525878906 L450.83123779296875,59.766807556152344 L451.600341796875,60.64084243774414 L452.573974609375,61.59534454345703 L453.74432373046875,62.495697021484375 L455.092041015625,63.209415435791016 L456.60894775390625,63.627174377441406 L458.25445556640625,63.66878128051758 L459.9573974609375,63.30312728881836 L461.61566162109375,62.565364837646484 L463.1251220703125,61.554447174072266 L464.3637390136719,60.417476654052734 L465.28790283203125,59.31718826293945 L465.86474609375,58.39350128173828 L466.0813293457031,57.77529525756836 L465.93359375,57.57524871826172 L465.43145751953125,57.8846549987793 L464.5620422363281,58.75886535644531 L463.416015625,60.19657897949219 L462.09295654296875,62.11754608154297 L460.7055969238281,64.40966033935547 L459.37353515625,66.92961883544922 L458.2197265625,69.51313018798828 L457.3193664550781,71.97919464111328 L456.771728515625,74.11254119873047 L456.60052490234375,75.71615600585938 L456.759765625,76.6950454711914 L457.0475158691406,77.13446044921875 L457.305419921875,77.23091125488281 M478.3104248046875,57.96168899536133 L478.234130859375,57.764381408691406 L478.0782470703125,57.631813049316406 L477.826904296875,57.77849578857422 L477.49609375,58.44130325317383 L477.1275939941406,59.6600341796875 L476.8116455078125,61.329322814941406 L476.64935302734375,63.23505783081055 L476.7526550292969,65.12532043457031 L477.19500732421875,66.75012969970703 L478.0015869140625,67.9218978881836 L479.15234375,68.51485443115234 L480.5894775390625,68.45954895019531 L482.21002197265625,67.77259826660156 L483.8899841308594,66.54251861572266 L485.47613525390625,64.93423461914062 L486.83184814453125,63.164554595947266 L487.84967041015625,61.457916259765625 L488.48492431640625,59.98426055908203 L488.74090576171875,58.87172317504883 L488.66339111328125,58.20956039428711 L488.30865478515625,58.0612678527832 L487.7760314941406,58.471954345703125 L487.18646240234375,59.43866729736328 L486.70550537109375,60.84709548950195 L486.5034484863281,62.5023307800293 L486.6932373046875,64.16326141357422 L487.31005859375,65.59894561767578 L488.32073974609375,66.64100646972656 L489.63616943359375,67.19618225097656 L491.1591491699219,67.21639251708984 L492.80401611328125,66.69945526123047 L494.44598388671875,65.6796875 L495.959228515625,64.23870849609375 L497.22308349609375,62.50857925415039 L498.15655517578125,60.66030502319336 L498.7135314941406,58.87653732299805 L498.92437744140625,57.332298278808594 L498.8575744628906,56.14634704589844 L498.67694091796875,55.40203094482422 L498.50811767578125,55.04694366455078 M509.0284423828125,60.01887893676758 L508.8477783203125,59.521217346191406 L508.41436767578125,58.809844970703125 L507.6424560546875,58.097816467285156 L506.5343017578125,57.71331787109375 L505.1658020019531,57.792789459228516 L503.69189453125,58.38624572753906 L502.3354797363281,59.413963317871094 L501.3065185546875,60.74794006347656 L500.7802734375,62.189483642578125 L500.8444519042969,63.53175354003906 L501.4952087402344,64.5901107788086 L502.6512145996094,65.23224639892578 L504.19244384765625,65.3719482421875 L505.9566345214844,64.98701477050781 L507.77984619140625,64.11231994628906 L509.4793701171875,62.86626052856445 L510.90130615234375,61.42713928222656 L511.94036865234375,60.004905700683594 L512.5691528320312,58.769561767578125 L512.8121948242188,57.85615158081055 L512.7369384765625,57.37030029296875 L512.4246826171875,57.390811920166016 L511.9794006347656,57.960899353027344 L511.5194091796875,59.057891845703125 L511.18963623046875,60.54270553588867 L511.12396240234375,62.20579147338867 L511.4216613769531,63.82701110839844 L512.1304931640625,65.20111083984375 L513.2442626953125,66.16914367675781 L514.7119140625,66.61148071289062 L516.4403686523438,66.4683609008789 L518.3028564453125,65.7464599609375 L520.14453125,64.53620910644531 L521.821044921875,62.9848747253418 L523.1937255859375,61.28510665893555 L524.2003173828125,59.641483306884766 L524.82568359375,58.24408721923828 L525.1151123046875,57.2373046875 L525.1469116210938,56.71808624267578 L525.0162353515625,56.729042053222656 L524.7744140625,57.28428649902344 L524.5115966796875,58.36676788330078 L524.309326171875,59.877967834472656 L524.28759765625,61.653812408447266 L524.5389404296875,63.479915618896484 L525.1181030273438,65.1337890625 L526.0179443359375,66.42453002929688 L527.2095947265625,67.2140121459961 L528.634521484375,67.41385650634766 L530.2625122070312,67.00064849853516 L531.9953002929688,66.02459716796875 L533.7308349609375,64.60858917236328 L535.3319091796875,62.941898345947266 L536.6417236328125,61.247676849365234 L537.5742797851562,59.733375549316406 L538.1104736328125,58.55635452270508 L538.2590942382812,57.83732223510742 L538.1094970703125,57.64105987548828 L537.7378540039062,58.01451873779297 L537.19873046875,58.98540496826172 L536.6159057617188,60.5215950012207 L536.08349609375,62.53983688354492 L535.6849365234375,64.92711639404297 L535.4945678710938,67.5478286743164 L535.5292358398438,70.27558135986328 L535.7572021484375,73.00115966796875 L536.1486206054688,75.61724853515625 L536.6060791015625,78.0125503540039 L537.0205688476562,80.0752944946289 L537.2868041992188,81.72664642333984 L537.316162109375,82.92572021484375 L537.0592041015625,83.66439819335938 L536.5287475585938,83.96331024169922 L535.7332153320312,83.83668518066406 L534.7230834960938,83.30690002441406 L533.582763671875,82.42606353759766 L532.42919921875,81.27334594726562 L531.414794921875,79.93951416015625 L530.7214965820312,78.51113891601562 L530.4859619140625,77.04988861083984 L530.8133544921875,75.6065902709961 L531.7484130859375,74.24352264404297 L533.25341796875,73.03662109375 L535.29931640625,72.03868865966797 L537.7305908203125,71.27323150634766 L540.311279296875,70.71394348144531 L542.4225463867188,70.35620880126953 L543.7489013671875,70.16531372070312 M568.6237182617188,62.76292037963867 L568.466064453125,62.35884475708008 L568.0737915039062,61.78160858154297 L567.349609375,61.20391082763672 L566.2666015625,60.89760971069336 L564.8653564453125,60.992820739746094 L563.2918701171875,61.54603576660156 L561.74951171875,62.51679611206055 L560.4762573242188,63.801876068115234 L559.6734008789062,65.23512268066406 L559.4721069335938,66.62107849121094 L559.9154052734375,67.7735595703125 L560.9758911132812,68.52513885498047 L562.555419921875,68.75982666015625 L564.5166015625,68.3996810913086 L566.6812744140625,67.42806243896484 L568.8644409179688,65.871826171875 L570.9054565429688,63.806617736816406 L572.7010498046875,61.340824127197266 L574.20166015625,58.641700744628906 L575.4033203125,55.90410614013672 L576.3224487304688,53.344627380371094 L576.9814453125,51.14352798461914 L577.3902587890625,49.44664001464844 L577.5609130859375,48.36290740966797 L577.5087890625,47.98493194580078 L577.268310546875,48.37025833129883 L576.904296875,49.5483283996582 L576.5008544921875,51.450618743896484 L576.1382446289062,53.92026138305664 L575.8966064453125,56.74460983276367 L575.8330078125,59.684078216552734 L576.032470703125,62.523128509521484 L576.526123046875,65.07186126708984 L577.2855224609375,67.1753158569336 L578.0328369140625,68.60684204101562 L578.5716552734375,69.36805725097656 M588.3739013671875,62.43864440917969 L588.1178588867188,61.98138427734375 L587.5751953125,61.38496398925781 L586.7078247070312,60.87591552734375 L585.5955810546875,60.75727081298828 L584.3807373046875,61.10783386230469 L583.2477416992188,61.913360595703125 L582.3983154296875,63.051700592041016 L582.0196533203125,64.36702728271484 L582.2325439453125,65.65184783935547 L583.0697021484375,66.70572662353516 L584.4627075195312,67.3720703125 L586.239013671875,67.56600189208984 L588.164306640625,67.273193359375 L589.98583984375,66.53570556640625 L591.483642578125,65.43050384521484 L592.5087890625,64.08306121826172 L592.996337890625,62.64596939086914 L592.9667358398438,61.28575897216797 L592.5089111328125,60.147003173828125 L591.7459106445312,59.378170013427734 L590.8438110351562,59.049217224121094 L589.97607421875,59.14697265625 L589.3326416015625,59.447147369384766 L588.9744873046875,59.744895935058594 M597.8291625976562,60.13032150268555 L597.6453247070312,60.037628173828125 L597.256591796875,60.06258010864258 L596.6651611328125,60.371822357177734 L595.9981689453125,61.10029220581055 L595.4259033203125,62.203792572021484 L595.1110229492188,63.5359001159668 L595.1680908203125,64.8927993774414 L595.6551513671875,66.08267974853516 L596.5665893554688,66.9393539428711 L597.8720703125,67.3443603515625 L599.4769897460938,67.22889709472656 L601.2493286132812,66.586181640625 L603.0313720703125,65.49600982666016 L604.65283203125,64.1155014038086 L605.947998046875,62.64455032348633 L606.8355712890625,61.28070068359375 L607.283447265625,60.18452835083008 L607.3203125,59.46943283081055 L607.0305786132812,59.21269607543945 L606.5076904296875,59.46894836425781 L605.8551025390625,60.240684509277344 L605.2589111328125,61.44033432006836 L604.9085083007812,62.88752365112305 L604.9702758789062,64.35189819335938 L605.5626831054688,65.60346984863281 L606.7025756835938,66.47188568115234 L608.3154907226562,66.85710906982422 L610.279541015625,66.71537780761719 L612.4130859375,66.05359649658203 L614.509765625,64.93257141113281 L616.383544921875,63.46839904785156 L617.8519287109375,61.79644775390625 L618.8121948242188,60.1020393371582 L619.265869140625,58.5601921081543 L619.367919921875,57.434574127197266 L619.3049926757812,56.79820251464844 M623.1515502929688,58.02177047729492 L623.0963134765625,58.239322662353516 L622.9683837890625,58.765193939208984 L622.75390625,59.67010498046875 L622.4774169921875,60.917518615722656 L622.1854248046875,62.385406494140625 L621.92822265625,63.9030876159668 L621.7384033203125,65.28709411621094 L621.6232299804688,66.38375091552734 L621.598388671875,67.05229187011719 L621.704833984375,67.20360565185547 L622.0120849609375,66.79583740234375 L622.599609375,65.84442138671875 L623.4992065429688,64.45632934570312 L624.703369140625,62.814857482910156 L626.1650390625,61.12495422363281 L627.7973022460938,59.590179443359375 L629.50390625,58.37327575683594 L631.1749877929688,57.57954788208008 L632.6827392578125,57.276649475097656 L633.9150390625,57.49925231933594 L634.7861328125,58.23628234863281 L635.2626953125,59.426387786865234 L635.3927001953125,60.95975875854492 L635.2879638671875,62.68721008300781 L635.091552734375,64.39989471435547 L634.930419921875,65.90977478027344 L634.8497314453125,66.97771453857422 L634.836181640625,67.55621337890625 M643.5777587890625,49.16135025024414 L643.5762939453125,49.287872314453125 L643.5330200195312,49.74147033691406 L643.4283447265625,50.683555603027344 L643.2562255859375,52.163482666015625 L643.0555419921875,54.09259796142578 L642.8602294921875,56.328575134277344 L642.717529296875,58.71061325073242 L642.662353515625,61.1102294921875 L642.710205078125,63.36368942260742 L642.841552734375,65.30691528320312 L642.9893188476562,66.67840576171875 L643.0960693359375,67.4294204711914 M639.2860107421875,60.66872787475586 L639.3603515625,60.47428894042969 L639.697265625,60.21784973144531 L640.4645385742188,59.967559814453125 L641.7724609375,59.80992126464844 L643.60400390625,59.730796813964844 L645.8543701171875,59.69778060913086 L648.3539428710938,59.66319274902344 L650.9163818359375,59.59767150878906 L653.3109130859375,59.477413177490234 L655.3177490234375,59.28972625732422 L656.7464599609375,59.037559509277344 L657.4702758789062,58.757606506347656 L657.4486083984375,58.51802062988281 L656.7561645507812,58.40715026855469 L655.5183715820312,58.53696060180664 L653.9437255859375,58.98225402832031 L652.2813720703125,59.75764846801758 L650.7969970703125,60.817569732666016 L649.7315673828125,62.05587387084961 L649.278076171875,63.32969284057617 L649.519287109375,64.50371551513672 L650.45654296875,65.44271087646484 L651.9990234375,66.04094696044922 L653.992919921875,66.22469329833984 L656.234619140625,65.94992065429688 L658.4888305664062,65.22261810302734 L660.5078735351562,64.11221313476562 L662.075439453125,62.7296257019043 L663.0450439453125,61.226043701171875 L663.3800048828125,59.759063720703125 L663.158935546875,58.458003997802734 L662.5081787109375,57.46064376831055 L661.6090698242188,56.8598518371582 L660.6431274414062,56.672000885009766 L659.8670654296875,56.743316650390625 L659.3946533203125,56.90242385864258 M668.012451171875,58.34069061279297 L667.8548583984375,58.259254455566406 L667.5617065429688,58.30406951904297 L667.14794921875,58.63383865356445 L666.7062377929688,59.371917724609375 L666.3570556640625,60.46320343017578 L666.2261962890625,61.780860900878906 L666.423583984375,63.13846206665039 L667.0218505859375,64.36741638183594 L668.025634765625,65.31245422363281 L669.3896484375,65.85042572021484 L671.029541015625,65.8896713256836 L672.8184814453125,65.41411590576172 L674.6177978515625,64.46189880371094 L676.284423828125,63.151268005371094 L677.697021484375,61.63932800292969 L678.7814331054688,60.09494400024414 L679.5089111328125,58.67015838623047 L679.8889770507812,57.4819450378418 L679.9610595703125,56.60462188720703 L679.76220703125,56.11483383178711 L679.3389892578125,56.07600021362305 L678.7547607421875,56.542850494384766 L678.0960693359375,57.52397918701172 L677.4877319335938,58.92455291748047 L677.0842895507812,60.56329345703125 L677.016845703125,62.234798431396484 L677.3851928710938,63.732418060302734 L678.2254638671875,64.91244506835938 L679.516357421875,65.68437194824219 L681.1991577148438,65.97502136230469 L683.17041015625,65.76345825195312 L685.2763061523438,65.07592010498047 L687.3241577148438,63.984920501708984 L689.113525390625,62.614742279052734 L690.4923095703125,61.115478515625 L691.377685546875,59.62366485595703 L691.7847900390625,58.29483413696289 L691.8215942382812,57.232120513916016 L691.6844482421875,56.53769302368164 L691.53125,56.18951416015625 M696.8277587890625,57.54340362548828 L696.7625732421875,57.53154754638672 L696.628662109375,57.661441802978516 L696.4219970703125,58.055084228515625 L696.1668701171875,58.798274993896484 L695.8978271484375,59.8516960144043 L695.6551513671875,61.13119125366211 L695.4605102539062,62.49971008300781 L695.3474731445312,63.82187271118164 L695.3073120117188,64.9629135131836 L695.327392578125,65.81543731689453 L695.40625,66.28007507324219 L695.5751953125,66.31102752685547 L695.86181640625,65.88333129882812 L696.338623046875,65.03707885742188 L697.019775390625,63.863983154296875 L697.9185791015625,62.50395584106445 L699.0438842773438,61.0875129699707 L700.393798828125,59.75361251831055 L701.9255981445312,58.620399475097656 L703.5855712890625,57.792049407958984 L705.2713623046875,57.342472076416016 L706.8881225585938,57.307701110839844 L708.3635864257812,57.67118835449219 L709.6441650390625,58.39646530151367 L710.7010498046875,59.41679000854492 L711.5330810546875,60.6531867980957 L712.171875,62.0048828125 L712.6939697265625,63.385231018066406 L713.1739501953125,64.69322967529297 L713.6616821289062,65.84066772460938 L714.074462890625,66.66205596923828 L714.3499755859375,67.12400817871094 " fill="none" stroke="black" stroke-linecap="round" stroke-width="2" /><path d="M0,0 M444.9638977050781,113.30345153808594 L444.96136474609375,113.51402282714844 L444.9029846191406,114.0505599975586 L444.7475891113281,115.04328918457031 L444.47662353515625,116.52606201171875 L444.1228332519531,118.4625015258789 L443.73516845703125,120.74937438964844 L443.3809509277344,123.23822784423828 L443.13189697265625,125.74560546875 L443.0573425292969,128.07229614257812 L443.2130126953125,130.01162719726562 L443.63604736328125,131.38328552246094 L444.3354797363281,132.04556274414062 L445.29937744140625,131.9237518310547 L446.49609375,131.02659606933594 L447.8642578125,129.4450225830078 L449.3138122558594,127.34514617919922 L450.7515563964844,124.92080688476562 L452.10137939453125,122.34690856933594 L453.31195068359375,119.80794525146484 L454.3453369140625,117.48845672607422 L455.17327880859375,115.55388641357422 L455.76580810546875,114.15789794921875 L456.1045227050781,113.40835571289062 L456.18109130859375,113.34738159179688 L456.0058288574219,114.01173400878906 L455.6081237792969,115.40505981445312 L455.0553894042969,117.4510269165039 L454.4331359863281,120.0047836303711 L453.8429260253906,122.84778594970703 L453.37353515625,125.69972229003906 L453.0941467285156,128.2961883544922 L453.0464782714844,130.41969299316406 L453.246826171875,131.89373779296875 L453.6941833496094,132.6029510498047 L454.3890380859375,132.4872283935547 L455.32952880859375,131.5243377685547 L456.5055847167969,129.76693725585938 L457.88226318359375,127.36030578613281 L459.39495849609375,124.51331329345703 L460.96112060546875,121.46723937988281 L462.4877624511719,118.4612045288086 L463.87591552734375,115.69291687011719 L465.050537109375,113.31876373291016 L465.9605712890625,111.50887298583984 L466.59564208984375,110.37166595458984 L466.9941711425781,109.91593933105469 L467.2051696777344,109.91072082519531 L467.28887939453125,110.08910369873047 M467.055908203125,125.71197509765625 L466.92340087890625,125.28819274902344 L466.66217041015625,124.65208435058594 L466.24249267578125,123.96366119384766 L465.6605224609375,123.48397827148438 L464.90484619140625,123.35579681396484 L463.9927673339844,123.66761016845703 L462.9771423339844,124.43421173095703 L461.9508972167969,125.62628936767578 L461.0251159667969,127.14596557617188 L460.31329345703125,128.82078552246094 L459.91461181640625,130.45323181152344 L459.88983154296875,131.83372497558594 L460.25714111328125,132.7880401611328 L460.98931884765625,133.18479919433594 L462.02471923828125,132.96116638183594 L463.2784729003906,132.11167907714844 L464.6463623046875,130.71961975097656 L466.0046081542969,128.9423370361328 L467.22845458984375,127.01654052734375 L468.215087890625,125.19526672363281 L468.9107666015625,123.69049835205078 L469.3164367675781,122.63243103027344 L469.46771240234375,122.09367370605469 L469.4089050292969,122.08744049072266 L469.1771240234375,122.62580871582031 L468.81170654296875,123.68045043945312 L468.37445068359375,125.15161895751953 L467.94781494140625,126.87908935546875 L467.6243896484375,128.67637634277344 L467.4870300292969,130.35049438476562 L467.59002685546875,131.747802734375 L467.9642639160156,132.7359161376953 L468.6240234375,133.19895935058594 L469.56842041015625,133.05352783203125 L470.77862548828125,132.26235961914062 L472.2098388671875,130.842529296875 L473.7880859375,128.86929321289062 L475.4252624511719,126.4580078125 L477.0299377441406,123.7495346069336 L478.5185546875,120.90168762207031 L479.80706787109375,118.0703125 L480.83013916015625,115.42732238769531 L481.55145263671875,113.13549041748047 L481.9739990234375,111.3246078491211 L482.1227111816406,110.08213806152344 L482.035888671875,109.46542358398438 L481.722900390625,109.48594665527344 L481.19744873046875,110.17449188232422 L480.4868469238281,111.52425384521484 L479.6507873535156,113.47988891601562 L478.7558898925781,115.9253158569336 L477.8830871582031,118.70658874511719 L477.0921630859375,121.61984252929688 L476.4473876953125,124.47579193115234 L475.99871826171875,127.07047271728516 L475.81622314453125,129.2110137939453 L475.9139099121094,130.75830078125 L476.256103515625,131.68263244628906 L476.64984130859375,132.09510803222656 L476.9525451660156,132.19622802734375 M484.3543701171875,115.58172607421875 L484.0985412597656,116.41687774658203 L483.6663818359375,117.8914794921875 L483.0946044921875,119.9057388305664 L482.4964904785156,122.14352416992188 L481.9428405761719,124.43363952636719 L481.4940490722656,126.6113510131836 L481.18994140625,128.5626678466797 L481.1230773925781,130.1152801513672 L481.3353271484375,131.14024353027344 L481.827880859375,131.6101837158203 L482.3802490234375,131.6904296875 L482.80889892578125,131.59225463867188 M487.36065673828125,124.33273315429688 L486.8834228515625,124.17915344238281 L486.0194396972656,124.05302429199219 L484.82733154296875,124.06058502197266 L483.53253173828125,124.31487274169922 L482.3243103027344,124.80345916748047 L481.38726806640625,125.47582244873047 L480.85516357421875,126.2620849609375 L480.8209228515625,127.09103393554688 L481.3157653808594,127.85975646972656 L482.3110046386719,128.48458862304688 L483.72503662109375,128.89891052246094 L485.4281005859375,129.06626892089844 L487.2693176269531,128.97694396972656 L489.09576416015625,128.6278839111328 L490.77435302734375,128.02627563476562 L492.19561767578125,127.21162414550781 L493.2961730957031,126.27278137207031 L494.0502014160156,125.33285522460938 L494.4820861816406,124.52717590332031 L494.64678955078125,123.9761962890625 L494.6124572753906,123.76435089111328 L494.43524169921875,123.9317626953125 L494.1717224121094,124.49410247802734 L493.8656005859375,125.4068374633789 L493.5752258300781,126.56954193115234 L493.3581237792969,127.84903717041016 L493.27813720703125,129.09097290039062 L493.35894775390625,130.14854431152344 L493.5859375,130.93405151367188 L493.8393859863281,131.4053497314453 L494.0307312011719,131.61306762695312 M495.5207214355469,117.68460083007812 L495.55322265625,117.6843490600586 L495.6362609863281,117.7384262084961 L495.7373962402344,117.82262420654297 L495.82415771484375,117.9127197265625 M498.6761474609375,124.1701431274414 L498.7757568359375,124.11505889892578 L498.9115295410156,124.10482788085938 L499.0381774902344,124.23219299316406 L499.09619140625,124.5964126586914 L499.0711669921875,125.2387924194336 L498.9609680175781,126.14566040039062 L498.7924499511719,127.24826049804688 L498.6060485839844,128.43438720703125 L498.44873046875,129.56533813476562 L498.3723449707031,130.5048828125 L498.420166015625,131.14376831054688 L498.6235656738281,131.39280700683594 L499.023193359375,131.20059204101562 L499.6590881347656,130.54896545410156 L500.5455627441406,129.49073791503906 L501.6618347167969,128.15733337402344 L502.94580078125,126.7358627319336 L504.29034423828125,125.41264343261719 L505.5786437988281,124.33515930175781 L506.71478271484375,123.60498046875 L507.6253356933594,123.28589630126953 L508.2727966308594,123.41222381591797 L508.654541015625,123.98652648925781 L508.7768859863281,124.9597396850586 L508.67242431640625,126.21332550048828 L508.42596435546875,127.61180114746094 L508.1380310058594,129.0035400390625 L507.9810791015625,130.24456787109375 L508.08880615234375,131.2275390625 L508.5113525390625,131.89910888671875 L509.03106689453125,132.2616729736328 L509.4582214355469,132.4005126953125 M516.8699340820312,127.28882598876953 L516.7824096679688,126.91771697998047 L516.538818359375,126.39697265625 L516.0741577148438,125.87745666503906 L515.3731079101562,125.58716583251953 L514.4940185546875,125.60453796386719 L513.5601806640625,125.9481201171875 L512.7313842773438,126.56226348876953 L512.16845703125,127.36547088623047 L511.9955749511719,128.2334747314453 L512.27001953125,129.0315704345703 L512.9905395507812,129.63430786132812 L514.0980224609375,129.9486846923828 L515.4813842773438,129.92091369628906 L516.994384765625,129.53997802734375 L518.4671630859375,128.85028076171875 L519.734130859375,127.93924713134766 L520.666015625,126.91912078857422 L521.2105712890625,125.9125747680664 L521.3939819335938,125.02143859863281 L521.2977294921875,124.32994079589844 L521.0172729492188,123.91133117675781 L520.6372680664062,123.82710266113281 L520.2136840820312,124.11824035644531 L519.8084716796875,124.79777526855469 L519.4891357421875,125.83253479003906 L519.3134765625,127.15870666503906 L519.312255859375,128.6954345703125 L519.479248046875,130.3544464111328 L519.7711791992188,132.04840087890625 L520.1293334960938,133.69473266601562 L520.4879150390625,135.21360778808594 L520.7853393554688,136.53890991210938 L520.9697265625,137.6238555908203 L520.9993896484375,138.43568420410156 L520.846923828125,138.95863342285156 L520.4984741210938,139.1916046142578 L519.9530029296875,139.1441650390625 L519.2348022460938,138.84146118164062 L518.3919677734375,138.32232666015625 L517.4891967773438,137.6305389404297 L516.6062622070312,136.82574462890625 L515.8148193359375,135.972900390625 L515.215087890625,135.12948608398438 L514.884033203125,134.36326599121094 L514.8552856445312,133.72975158691406 L515.0005493164062,133.2967987060547 L515.183837890625,133.0689697265625 M535.138427734375,130.65399169921875 L535.4710693359375,130.1379852294922 L536.0538940429688,129.2164764404297 L536.8341674804688,127.91206359863281 L537.6689453125,126.36740112304688 L538.472412109375,124.62370300292969 L539.17724609375,122.75038146972656 L539.7431640625,120.81970977783203 L540.1285400390625,118.95185852050781 L540.3116455078125,117.27832794189453 L540.3017578125,115.91200256347656 L540.12353515625,114.94366455078125 L539.8048706054688,114.44902038574219 L539.36083984375,114.48609924316406 L538.7857055664062,115.0927505493164 L538.0911254882812,116.2723617553711 L537.319580078125,117.96510314941406 L536.5374755859375,120.07044219970703 L535.8155517578125,122.46576690673828 L535.20849609375,125.02217102050781 L534.7394409179688,127.61284637451172 L534.4181518554688,130.105712890625 L534.25048828125,132.35963439941406 L534.2276611328125,134.25335693359375 L534.34619140625,135.64889526367188 L534.5798950195312,136.4683837890625 L534.886474609375,136.72454833984375 L535.1622314453125,136.63697814941406 L535.348876953125,136.436767578125 M531.4566040039062,125.75321960449219 L531.6652221679688,125.84646606445312 L532.21240234375,126.01531219482422 L533.19677734375,126.23340606689453 L534.6857299804688,126.46165466308594 L536.5855102539062,126.6815414428711 L538.70947265625,126.89363098144531 L540.4996337890625,127.06636047363281 L541.6550903320312,127.18447875976562 M547.9667358398438,128.14492797851562 L547.8030395507812,127.98631286621094 L547.45263671875,127.75180053710938 L546.859130859375,127.51822662353516 L546.0264892578125,127.42240905761719 L544.991943359375,127.56422424316406 L543.8565063476562,128.00482177734375 L542.7615356445312,128.73220825195312 L541.873291015625,129.67913818359375 L541.328369140625,130.71778869628906 L541.226806640625,131.69677734375 L541.6180419921875,132.47027587890625 L542.4891967773438,132.91360473632812 L543.7639770507812,132.93704223632812 L545.3073120117188,132.50558471679688 L546.9401245117188,131.64776611328125 L548.4717407226562,130.46273803710938 L549.7349243164062,129.10707092285156 L550.6175537109375,127.74991607666016 L551.0802612304688,126.52367401123047 L551.1480712890625,125.52684783935547 L550.886962890625,124.82847595214844 L550.3787841796875,124.48448181152344 L549.7106323242188,124.54458618164062 L548.9835205078125,125.0163345336914 L548.320556640625,125.83827209472656 L547.8487548828125,126.90805053710938 L547.6791381835938,128.09463500976562 L547.8804931640625,129.26364135742188 L548.4715576171875,130.29708862304688 L549.43212890625,131.08958435058594 L550.7157592773438,131.55882263183594 L552.2452392578125,131.64842224121094 L553.9262084960938,131.33824157714844 L555.649658203125,130.64013671875 L557.3025512695312,129.5957794189453 L558.7861328125,128.27911376953125 L560.0181884765625,126.79204559326172 L560.9327392578125,125.24698638916016 L561.489013671875,123.76090240478516 L561.671875,122.43505859375 L561.4952392578125,121.3468017578125 L561.0125732421875,120.556640625 L560.3082885742188,120.10747528076172 L559.494140625,120.02601623535156 L558.704345703125,120.31121063232422 L558.0838623046875,120.9230728149414 L557.7666015625,121.77897644042969 L557.8707275390625,122.77842712402344 L558.4661865234375,123.8169937133789 L559.5537109375,124.81072998046875 L561.053955078125,125.70561218261719 L562.8134765625,126.47512817382812 L564.6307373046875,127.10859680175781 L566.31982421875,127.61901092529297 L567.73828125,128.02735900878906 L568.8014526367188,128.3590545654297 L569.472900390625,128.6439971923828 L569.7437744140625,128.90802001953125 L569.617919921875,129.16419982910156 L569.1199340820312,129.41384887695312 L568.301025390625,129.64637756347656 L567.2400512695312,129.83755493164062 L566.0333251953125,129.96841430664062 L564.7847290039062,130.0186309814453 L563.6138916015625,129.9868621826172 L562.622314453125,129.8976287841797 L561.90478515625,129.78878784179688 L561.5396728515625,129.69007873535156 L561.5794677734375,129.6146240234375 L562.0524291992188,129.53414916992188 L562.9832763671875,129.4117889404297 L564.3316650390625,129.21714782714844 L566.0211181640625,128.91476440429688 L567.94091796875,128.4605712890625 L569.9703979492188,127.79601287841797 L572.005859375,126.85138702392578 L573.9756469726562,125.57012176513672 L575.816162109375,123.92919921875 L577.4856567382812,121.94723510742188 L578.9547729492188,119.68949127197266 L580.205810546875,117.2450180053711 L581.2335815429688,114.72660064697266 L582.0255737304688,112.25178527832031 L582.581787109375,109.95801544189453 L582.9261474609375,107.98085021972656 L583.1056518554688,106.44213104248047 L583.1670532226562,105.42840576171875 L583.13818359375,105.0 L583.0023803710938,105.18061065673828 L582.7385864257812,105.98663330078125 L582.3455810546875,107.3769302368164 L581.8619384765625,109.260498046875 L581.3479614257812,111.5168228149414 L580.8592529296875,114.01565551757812 L580.42578125,116.6258544921875 L580.0577392578125,119.22917938232422 L579.7445068359375,121.68440246582031 L579.4954833984375,123.8576889038086 L579.3212890625,125.6451187133789 L579.2528076171875,126.95004272460938 L579.3075561523438,127.73748779296875 L579.47802734375,128.04397583007812 L579.67041015625,128.044921875 L579.8211669921875,127.92902374267578 M573.742919921875,116.7088623046875 L573.9031372070312,116.7454833984375 L574.3910522460938,116.83015441894531 L575.3438720703125,116.96243286132812 L576.87744140625,117.129150390625 L578.906005859375,117.30960845947266 L581.2230224609375,117.49024200439453 L583.1951904296875,117.63480377197266 L584.4722290039062,117.7280502319336 " fill="none" stroke="black" stroke-linecap="round" stroke-width="2" /><path d="M0,0 M443.09552001953125,168.62709045410156 L443.1021423339844,168.94442749023438 L443.12139892578125,169.6195068359375 L443.1528015136719,170.73104858398438 L443.18560791015625,172.2604217529297 L443.20599365234375,174.18946838378906 L443.2006530761719,176.448486328125 L443.1747131347656,178.94229125976562 L443.15252685546875,181.5329132080078 L443.17901611328125,184.0572509765625 L443.2767333984375,186.32025146484375 L443.4440002441406,188.17840576171875 L443.6431884765625,189.42901611328125 L443.8243713378906,189.96551513671875 L443.95281982421875,189.80662536621094 L444.026123046875,189.3168487548828 L444.0547180175781,188.8208770751953 M435.8728332519531,167.88694763183594 L435.927001953125,167.87693786621094 L436.2495422363281,167.81390380859375 L437.04388427734375,167.66372680664062 L438.451171875,167.4060821533203 L440.4513854980469,167.07003784179688 L442.91021728515625,166.69801330566406 L445.6269226074219,166.32583618164062 L448.3996276855469,165.97393798828125 L451.0367126464844,165.653564453125 L453.3840026855469,165.370849609375 L455.3345642089844,165.1486053466797 L456.75238037109375,165.01722717285156 L457.55859375,165.0 L457.75299072265625,165.10118103027344 L457.5808410644531,165.24746704101562 L457.30194091796875,165.37466430664062 M440.9326477050781,177.6131591796875 L441.27655029296875,177.6547393798828 L442.0315856933594,177.62142944335938 L443.2484130859375,177.4557647705078 L444.8912353515625,177.1363983154297 L446.8294982910156,176.75973510742188 L448.86578369140625,176.42086791992188 L450.5200500488281,176.19754028320312 L451.5600891113281,176.09117126464844 M461.12310791015625,178.3921661376953 L460.93499755859375,178.12440490722656 L460.5339660644531,177.7197723388672 L459.8662109375,177.29971313476562 L458.9380798339844,177.07411193847656 L457.7845153808594,177.19149780273438 L456.4936828613281,177.7456817626953 L455.200927734375,178.75018310546875 L454.063720703125,180.14706420898438 L453.2276916503906,181.80194091796875 L452.7987060546875,183.5259246826172 L452.8376159667969,185.116455078125 L453.3380432128906,186.3785400390625 L454.24847412109375,187.16336059570312 L455.4641418457031,187.3721160888672 L456.8635559082031,186.9686279296875 L458.3199157714844,185.98377990722656 L459.7247314453125,184.521240234375 L460.9766845703125,182.73951721191406 L462.0084228515625,180.8474884033203 L462.7718505859375,179.06297302246094 L463.26739501953125,177.57528686523438 L463.5213623046875,176.51364135742188 L463.5871887207031,175.9490203857422 L463.523193359375,175.9051513671875 L463.3896179199219,176.3839111328125 L463.2299499511719,177.35858154296875 L463.09881591796875,178.74961853027344 L463.03271484375,180.41940307617188 L463.0701904296875,182.19711303710938 L463.2442932128906,183.9143524169922 L463.564697265625,185.43946838378906 L464.0604553222656,186.63726806640625 L464.72637939453125,187.4133758544922 L465.5194091796875,187.7366180419922 L466.2205505371094,187.74940490722656 L466.6941223144531,187.62901306152344 M475.1246337890625,177.1489715576172 L474.94256591796875,176.89944458007812 L474.5585021972656,176.57073974609375 L473.9290771484375,176.30206298828125 L473.07806396484375,176.28712463378906 L472.0531311035156,176.61422729492188 L470.9407653808594,177.3058624267578 L469.8627624511719,178.32254028320312 L468.9610595703125,179.6036834716797 L468.359619140625,181.04998779296875 L468.158935546875,182.53961181640625 L468.4173278808594,183.94456481933594 L469.1490783691406,185.14111328125 L470.3294982910156,186.03125 L471.89617919921875,186.55606079101562 L473.7405700683594,186.69357299804688 L475.76031494140625,186.4019775390625 L477.79498291015625,185.71275329589844 L479.68115234375,184.72242736816406 L481.09027099609375,183.7828369140625 L481.9100646972656,183.1295166015625 M481.3558654785156,181.1834259033203 L481.49072265625,181.30410766601562 L481.83795166015625,181.40127563476562 L482.47210693359375,181.36630249023438 L483.393798828125,181.0840301513672 L484.5409851074219,180.5432891845703 L485.78936767578125,179.7637939453125 L486.9993591308594,178.80227661132812 L488.0379943847656,177.7212371826172 L488.7913818359375,176.60789489746094 L489.170166015625,175.559814453125 L489.1254577636719,174.68795776367188 L488.6500244140625,174.09530639648438 L487.78924560546875,173.8773193359375 L486.6359558105469,174.10096740722656 L485.3260803222656,174.79212951660156 L484.01763916015625,175.9106903076172 L482.8785095214844,177.3580322265625 L482.0596008300781,178.9951171875 L481.675537109375,180.6695556640625 L481.7901916503906,182.2354278564453 L482.41912841796875,183.56857299804688 L483.5289611816406,184.5758514404297 L485.03363037109375,185.20912170410156 L486.870849609375,185.39883422851562 L488.90374755859375,185.14328002929688 L490.9615783691406,184.50770568847656 L492.60198974609375,183.80523681640625 L493.615478515625,183.27122497558594 M500.239501953125,173.82412719726562 L500.0096435546875,173.54824829101562 L499.5263366699219,173.20175170898438 L498.7542419433594,172.93893432617188 L497.7572021484375,172.9432830810547 L496.656982421875,173.2523956298828 L495.62713623046875,173.82997131347656 L494.864501953125,174.58892822265625 L494.5498352050781,175.4537353515625 L494.8028564453125,176.3520050048828 L495.6573486328125,177.2152099609375 L497.0617370605469,178.0070343017578 L498.8799133300781,178.7264404296875 L500.8963317871094,179.3998260498047 L502.8504333496094,180.04920959472656 L504.49273681640625,180.68017578125 L505.626953125,181.27626037597656 L506.14410400390625,181.81927490234375 L506.04217529296875,182.3081512451172 L505.3721923828125,182.7474822998047 L504.2314147949219,183.1273651123047 L502.7610168457031,183.4351043701172 L501.12493896484375,183.6630859375 L499.49542236328125,183.80580139160156 L498.0672607421875,183.84652709960938 L496.990966796875,183.78099060058594 L496.34649658203125,183.61643981933594 L496.072509765625,183.43008422851562 L496.0296325683594,183.28851318359375 M519.7626342773438,175.28053283691406 L519.7391967773438,175.5786895751953 L519.7166137695312,176.2010498046875 L519.7091674804688,177.21009826660156 L519.7296752929688,178.5876922607422 L519.7726440429688,180.32728576660156 L519.8226318359375,182.38494873046875 L519.8652954101562,184.6868133544922 L519.8943481445312,187.1055450439453 L519.9129028320312,189.46746826171875 L519.9266357421875,191.56748962402344 L519.941650390625,193.23573303222656 L519.95703125,194.34510803222656 L519.9656372070312,194.8294677734375 L519.952392578125,194.6691436767578 L519.913818359375,193.87991333007812 L519.8532104492188,192.4952392578125 L519.7864990234375,190.6249237060547 L519.7401123046875,188.4123992919922 L519.7467651367188,186.02203369140625 L519.8381958007812,183.59625244140625 L520.056396484375,181.25247192382812 L520.446044921875,179.07864379882812 L521.048095703125,177.17173767089844 L521.8920288085938,175.61996459960938 L522.986328125,174.498046875 L524.3078002929688,173.84950256347656 L525.799560546875,173.68829345703125 L527.3703002929688,173.99224853515625 L528.9008178710938,174.70765686035156 L530.2592163085938,175.75196838378906 L531.3245239257812,177.01483154296875 L532.0018310546875,178.3746337890625 L532.23291015625,179.71286010742188 L532.0008544921875,180.928955078125 L531.3228149414062,181.94024658203125 L530.25732421875,182.69366455078125 L528.8989868164062,183.1530303955078 L527.37060546875,183.3013916015625 L525.8135986328125,183.15585327148438 L524.4035034179688,182.73403930664062 L523.2947387695312,182.09922790527344 L522.5947265625,181.35916137695312 L522.2703857421875,180.72979736328125 L522.1968994140625,180.32688903808594 M542.0270385742188,175.8086395263672 L541.8516845703125,175.48353576660156 L541.4614868164062,175.01844787597656 L540.8043823242188,174.55740356445312 L539.896484375,174.32122802734375 L538.7969970703125,174.42031860351562 L537.6060791015625,174.90968322753906 L536.4521484375,175.76486206054688 L535.4775390625,176.92637634277344 L534.8109741210938,178.2747344970703 L534.5449829101562,179.6495819091797 L534.7305908203125,180.88348388671875 L535.3660888671875,181.82691955566406 L536.3959350585938,182.3565216064453 L537.7257690429688,182.40245056152344 L539.22998046875,181.94578552246094 L540.763671875,181.02548217773438 L542.1876831054688,179.7358856201172 L543.3869018554688,178.23321533203125 L544.2769775390625,176.7099151611328 L544.8433837890625,175.3585662841797 L545.1123657226562,174.32785034179688 L545.143798828125,173.70547485351562 L545.019287109375,173.52093505859375 L544.8131103515625,173.78317260742188 L544.5777587890625,174.48333740234375 L544.3920288085938,175.5686798095703 L544.3049926757812,176.9197235107422 L544.401123046875,178.3795928955078 L544.7303466796875,179.76498413085938 L545.2875366210938,180.93211364746094 L545.8531494140625,181.72979736328125 L546.2744140625,182.1533203125 M556.766357421875,172.99952697753906 L556.4822998046875,172.67596435546875 L555.8873291015625,172.26846313476562 L554.9479370117188,171.9418487548828 L553.7687377929688,171.90455627441406 L552.5145874023438,172.18101501464844 L551.4008178710938,172.72537231445312 L550.6448974609375,173.4435577392578 L550.4214477539062,174.263671875 L550.8252563476562,175.11001586914062 L551.86572265625,175.93235778808594 L553.4483032226562,176.6985321044922 L555.39013671875,177.4052734375 L557.4547119140625,178.0729522705078 L559.380615234375,178.71421813964844 L560.94384765625,179.31915283203125 L561.9901123046875,179.86952209472656 L562.4357299804688,180.348388671875 L562.2694091796875,180.7437744140625 L561.544921875,181.0626678466797 L560.3533325195312,181.30050659179688 L558.8377075195312,181.4559783935547 L557.1768798828125,181.52659606933594 L555.55322265625,181.52560424804688 L554.177490234375,181.4393768310547 L553.2180786132812,181.26904296875 L552.7528686523438,181.0199737548828 L552.65673828125,180.7776336669922 L552.7447509765625,180.60043334960938 M570.610595703125,172.18161010742188 L570.122802734375,171.921875 L569.230224609375,171.60154724121094 L567.9791259765625,171.35958862304688 L566.5894775390625,171.35411071777344 L565.2569580078125,171.58885192871094 L564.2030029296875,172.0345001220703 L563.60791015625,172.61279296875 L563.6220092773438,173.27395629882812 L564.319580078125,173.97596740722656 L565.6845703125,174.67184448242188 L567.599365234375,175.3350067138672 L569.8588256835938,175.97824096679688 L572.197998046875,176.60865783691406 L574.3566284179688,177.23892211914062 L576.122314453125,177.86439514160156 L577.3571166992188,178.4563751220703 L577.9940185546875,178.99635314941406 L578.0194702148438,179.4717254638672 L577.459716796875,179.87063598632812 L576.3847045898438,180.1885528564453 L574.901123046875,180.414794921875 L573.1527099609375,180.54119873046875 L571.3070068359375,180.5792999267578 L569.5003051757812,180.53260803222656 L567.8650512695312,180.4183349609375 L566.5003662109375,180.26512145996094 L565.5574951171875,180.12525939941406 L565.0458984375,180.03062438964844 " fill="none" stroke="black" stroke-linecap="round" stroke-width="2" /><path d="M0,0 M420.8917236328125,228.0673828125 M420.68548583984375,228.71604919433594 L420.57257080078125,229.26150512695312 L420.3345947265625,230.32785034179688 L419.94158935546875,231.95751953125 L419.4021911621094,234.0327606201172 L418.73101806640625,236.46217346191406 L417.9817199707031,239.11265563964844 L417.2164001464844,241.8145751953125 L416.5148010253906,244.34349060058594 L415.92071533203125,246.4881591796875 L415.5091552734375,247.9677734375 L415.281982421875,248.75436401367188 M420.3470153808594,228.1937255859375 L420.3918762207031,228.21420288085938 L420.46929931640625,228.4735870361328 L420.5876159667969,229.15768432617188 L420.749755859375,230.386962890625 L420.9765319824219,232.1240234375 L421.2670593261719,234.2582550048828 L421.6152038574219,236.6425018310547 L421.9862060546875,239.12164306640625 L422.3484191894531,241.54116821289062 L422.65899658203125,243.723388671875 L422.8739013671875,245.5118408203125 L422.98529052734375,246.714599609375 L423.0203857421875,247.3424072265625 M416.926513671875,239.97108459472656 L417.1321105957031,239.70115661621094 L417.63104248046875,239.27947998046875 L418.4864807128906,238.77670288085938 L419.72247314453125,238.31256103515625 L421.2525634765625,237.91748046875 L422.9280090332031,237.59930419921875 L424.32373046875,237.3739776611328 L425.21905517578125,237.24581909179688 M429.2210998535156,237.0875701904297 L429.12371826171875,237.39913940429688 L428.9493103027344,238.07156372070312 L428.7104797363281,239.15545654296875 L428.4493103027344,240.57281494140625 L428.1861572265625,242.2047576904297 L427.94818115234375,243.901123046875 L427.7413024902344,245.49569702148438 L427.57354736328125,246.83309936523438 L427.4559631347656,247.76483154296875 L427.3994140625,248.16830444335938 L427.4130859375,247.9705810546875 L427.5293884277344,247.15884399414062 L427.77337646484375,245.788330078125 L428.1778564453125,244.00875854492188 L428.7723693847656,242.01731872558594 L429.5647277832031,240.0247344970703 L430.5294189453125,238.2215576171875 L431.61907958984375,236.75531005859375 L432.7497253417969,235.72604370117188 L433.8327331542969,235.20401000976562 L434.786865234375,235.21852111816406 L435.5509033203125,235.75975036621094 L436.0865783691406,236.77862548828125 L436.3877868652344,238.19383239746094 L436.46148681640625,239.88125610351562 L436.3402404785156,241.6930389404297 L436.1067199707031,243.4700164794922 L435.8642883300781,245.0450897216797 L435.7111511230469,246.2872772216797 L435.66400146484375,247.0883026123047 L435.6866149902344,247.48106384277344 M445.8278503417969,240.88589477539062 L445.8138732910156,240.43626403808594 L445.6513366699219,239.76101684570312 L445.23406982421875,239.01776123046875 L444.4983215332031,238.47195434570312 L443.479736328125,238.24903869628906 L442.2666320800781,238.43544006347656 L440.98883056640625,239.0481719970703 L439.77813720703125,240.0729522705078 L438.7723388671875,241.43295288085938 L438.093017578125,242.9935302734375 L437.8184509277344,244.58335876464844 L437.96636962890625,246.02040100097656 L438.50177001953125,247.13278198242188 L439.34613037109375,247.7770538330078 L440.40985107421875,247.84291076660156 L441.6059265136719,247.26710510253906 L442.8504638671875,246.0445556640625 L444.0609130859375,244.23683166503906 L445.1700134277344,241.9690704345703 L446.13134765625,239.40867614746094 L446.93157958984375,236.72901916503906 L447.57330322265625,234.1057891845703 L448.0675048828125,231.7043914794922 L448.42138671875,229.6671142578125 L448.6402587890625,228.10107421875 L448.7308349609375,227.08192443847656 L448.7043151855469,226.65560913085938 L448.57196044921875,226.8555145263672 L448.35223388671875,227.7004852294922 L448.0704345703125,229.1650390625 L447.75738525390625,231.1562042236328 L447.45074462890625,233.53805541992188 L447.1860656738281,236.14303588867188 L446.9963073730469,238.79869079589844 L446.88995361328125,241.33554077148438 L446.882080078125,243.58583068847656 L446.97161865234375,245.3930206298828 L447.14947509765625,246.67266845703125 L447.337646484375,247.40994262695312 L447.4834899902344,247.72531127929688 M461.38043212890625,227.46499633789062 L461.36029052734375,227.5748748779297 L461.2963562011719,227.95266723632812 L461.15509033203125,228.7319793701172 L460.9266662597656,229.9750518798828 L460.621337890625,231.6403045654297 L460.26873779296875,233.64764404296875 L459.899169921875,235.88986206054688 L459.5323181152344,238.24659729003906 L459.17108154296875,240.56683349609375 L458.83685302734375,242.6990509033203 L458.5439453125,244.51658630371094 L458.32867431640625,245.8964385986328 L458.2174072265625,246.76681518554688 L458.21514892578125,247.12754821777344 L458.270751953125,247.14627075195312 L458.3389892578125,247.02032470703125 M464.4326171875,225.0 L464.45684814453125,225.24864196777344 L464.47406005859375,225.7499542236328 L464.4798583984375,226.3172149658203 L464.4698181152344,226.7637176513672 M468.30157470703125,239.08819580078125 L468.3955078125,238.64511108398438 L468.51568603515625,237.99441528320312 L468.640380859375,237.28445434570312 L468.7264099121094,236.7489776611328 L468.78851318359375,236.5001678466797 L468.82183837890625,236.62303161621094 L468.8078918457031,237.1605987548828 L468.7158508300781,238.15762329101562 L468.54595947265625,239.5615234375 L468.30859375,241.2322540283203 L468.0481262207031,242.9800262451172 L467.7973327636719,244.58815002441406 L467.5824890136719,245.8749542236328 L467.4219055175781,246.71653747558594 L467.3393249511719,247.02880859375 L467.36798095703125,246.77871704101562 L467.55224609375,245.95733642578125 L467.9277648925781,244.6148223876953 L468.5257873535156,242.895263671875 L469.35150146484375,241.00062561035156 L470.3708190917969,239.15513610839844 L471.5133972167969,237.56248474121094 L472.68804931640625,236.36387634277344 L473.79962158203125,235.64688110351562 L474.7703857421875,235.46681213378906 L475.5444030761719,235.83575439453125 L476.078125,236.7193603515625 L476.3448181152344,238.03724670410156 L476.3471374511719,239.6634063720703 L476.1255798339844,241.40740966796875 L475.76385498046875,243.05685424804688 L475.3589172363281,244.41903686523438 L474.9976501464844,245.32774353027344 L474.74981689453125,245.69432067871094 L474.6557922363281,245.50161743164062 L474.74493408203125,244.76084899902344 L475.0648193359375,243.5382843017578 L475.643798828125,241.9738006591797 L476.48944091796875,240.2277374267578 L477.5788269042969,238.49478149414062 L478.8346862792969,236.95254516601562 L480.1516418457031,235.72731018066406 L481.4318542480469,234.9007110595703 L482.586181640625,234.52774047851562 L483.55133056640625,234.6232452392578 L484.2882080078125,235.17909240722656 L484.7655944824219,236.1527099609375 L484.96929931640625,237.46658325195312 L484.91546630859375,239.00787353515625 L484.6542053222656,240.64219665527344 L484.2627868652344,242.2381591796875 L483.84808349609375,243.66213989257812 L483.5075378417969,244.81524658203125 L483.294677734375,245.5835723876953 L483.2039794921875,245.98033142089844 M497.90008544921875,227.12457275390625 M498.0486755371094,227.87628173828125 L498.0745849609375,228.48585510253906 L498.085205078125,229.5851287841797 L498.04876708984375,231.1484832763672 L497.92730712890625,232.99676513671875 L497.70977783203125,235.0560302734375 L497.40496826171875,237.23194885253906 L497.0360412597656,239.43475341796875 L496.6339416503906,241.4954071044922 L496.2586669921875,243.24908447265625 L495.94757080078125,244.56307983398438 L495.7239685058594,245.3563690185547 L495.59521484375,245.6011962890625 L495.559326171875,245.3146209716797 L495.62384033203125,244.4960479736328 L495.8505859375,243.2022247314453 L496.2777099609375,241.5550079345703 L496.9338073730469,239.7256317138672 L497.8077392578125,237.90621948242188 L498.84393310546875,236.28150939941406 L499.96575927734375,234.9824981689453 L501.0953369140625,234.10205078125 L502.13677978515625,233.6952362060547 L503.0150451660156,233.78346252441406 L503.6654052734375,234.3505401611328 L504.04925537109375,235.35263061523438 L504.1689758300781,236.71067810058594 L504.0483703613281,238.3072052001953 L503.74371337890625,240.00392150878906 L503.3379821777344,241.6597900390625 L502.91070556640625,243.15362548828125 L502.58343505859375,244.34593200683594 L502.45416259765625,245.1279296875 L502.56927490234375,245.45956420898438 L502.805908203125,245.47830200195312 L503.03656005859375,245.35923767089844 M512.4495239257812,237.7943878173828 L512.396728515625,237.31361389160156 L512.173095703125,236.63478088378906 L511.6831359863281,235.949951171875 L510.8858947753906,235.5513153076172 L509.83404541015625,235.55242919921875 L508.6253662109375,236.00347900390625 L507.4023132324219,236.87203979492188 L506.3138122558594,238.10235595703125 L505.5036926269531,239.56997680664062 L505.07928466796875,241.1121063232422 L505.0931396484375,242.5570526123047 L505.53759765625,243.73988342285156 L506.3578186035156,244.52932739257812 L507.46368408203125,244.8379364013672 L508.737548828125,244.62379455566406 L510.0363464355469,243.90087890625 L511.21441650390625,242.74281311035156 L512.1514892578125,241.27796936035156 L512.766357421875,239.6815643310547 L513.0261840820312,238.12759399414062 L512.9820556640625,236.77484130859375 L512.6961669921875,235.7084197998047 L512.3585815429688,235.01429748535156 L512.101318359375,234.6594696044922 M516.3579711914062,235.25790405273438 L516.41259765625,235.53089904785156 L516.443359375,236.14306640625 L516.3912353515625,237.1602020263672 L516.2033081054688,238.52197265625 L515.8859252929688,240.12109375 L515.4796752929688,241.7921142578125 L515.0444946289062,243.34890747070312 L514.6387329101562,244.61923217773438 L514.3164672851562,245.4511260986328 L514.1192016601562,245.73228454589844 L514.07080078125,245.4290771484375 L514.19482421875,244.54476928710938 L514.5120849609375,243.15509033203125 L515.0415649414062,241.41262817382812 L515.7938842773438,239.50640869140625 L516.7530517578125,237.64242553710938 L517.861083984375,236.01548767089844 L519.0354614257812,234.768798828125 L520.182373046875,234.00521850585938 L521.2156982421875,233.7821502685547 L522.0706787109375,234.10496520996094 L522.700927734375,234.93313598632812 L523.0694580078125,236.18043518066406 L523.1598510742188,237.72312927246094 L522.9837036132812,239.40589904785156 L522.59375,241.04075622558594 L522.07421875,242.44833374023438 L521.535400390625,243.48538208007812 L521.082275390625,244.0463104248047 L520.794921875,244.07357788085938 L520.7257080078125,243.5567169189453 L520.90673828125,242.5172576904297 L521.3440551757812,241.054931640625 L522.0361328125,239.343994140625 L522.9523315429688,237.58255004882812 L524.02734375,235.96031188964844 L525.175537109375,234.62437438964844 L526.3065185546875,233.6664276123047 L527.3308715820312,233.14599609375 L528.1788330078125,233.09744262695312 L528.796875,233.5226287841797 L529.146484375,234.38958740234375 L529.2188720703125,235.6234588623047 L529.037841796875,237.11231994628906 L528.6532592773438,238.7235870361328 L528.145263671875,240.3208465576172 L527.6064453125,241.78993225097656 L527.157958984375,243.00009155273438 L526.9011840820312,243.84466552734375 L526.88330078125,244.26849365234375 L527.0067138671875,244.37478637695312 L527.1590576171875,244.31532287597656 M530.2894287109375,242.1231689453125 L530.492431640625,242.08558654785156 L530.9246826171875,241.9363555908203 L531.6248168945312,241.5993194580078 L532.548095703125,241.0217742919922 L533.622314453125,240.20501708984375 L534.7381591796875,239.18553161621094 L535.777099609375,238.03236389160156 L536.6234130859375,236.83135986328125 L537.1846923828125,235.67660522460938 L537.4002685546875,234.66946411132812 L537.248291015625,233.9176788330078 L536.7445678710938,233.519287109375 L535.9424438476562,233.55325317382812 L534.9293212890625,234.0613250732422 L533.8270874023438,235.02728271484375 L532.780517578125,236.37538146972656 L531.93603515625,237.97882080078125 L531.4171142578125,239.682861328125 L531.2923583984375,241.3303680419922 L531.65234375,242.76161193847656 L532.4931030273438,243.85047912597656 L533.7223510742188,244.533203125 L534.90234375,244.8565673828125 L535.7357788085938,244.94281005859375 M540.4945068359375,239.43614196777344 L540.7089233398438,239.43649291992188 L541.1292114257812,239.41189575195312 L541.763671875,239.3460235595703 L542.6119384765625,239.2191162109375 L543.66162109375,239.0410614013672 L544.8330078125,238.8207550048828 L545.8348999023438,238.6254119873047 L546.4927368164062,238.49293518066406 M552.9280395507812,227.21630859375 M553.0121459960938,228.1691436767578 L552.899169921875,228.83599853515625 L552.6737670898438,230.03558349609375 L552.3248901367188,231.71983337402344 L551.8800048828125,233.6620330810547 L551.36474609375,235.74075317382812 L550.8125,237.8356475830078 L550.2601928710938,239.82058715820312 L549.7513427734375,241.53482055664062 L549.3191528320312,242.8494415283203 L548.9839477539062,243.67970275878906 L548.7515869140625,243.9972686767578 L548.6192626953125,243.8167724609375 L548.604736328125,243.1483612060547 L548.743896484375,242.03631591796875 L549.0806884765625,240.59164428710938 L549.6463623046875,238.96620178222656 L550.4503784179688,237.33212280273438 L551.4674682617188,235.8507080078125 L552.6503295898438,234.64141845703125 L553.927978515625,233.79965209960938 L555.2152099609375,233.39967346191406 L556.413330078125,233.47244262695312 L557.4258422851562,234.00616455078125 L558.162353515625,234.946044921875 L558.5487060546875,236.2000732421875 L558.5408325195312,237.64926147460938 L558.1212768554688,239.1631622314453 L557.296142578125,240.60821533203125 L556.1061401367188,241.86773681640625 L554.6321411132812,242.85328674316406 L552.99365234375,243.49740600585938 L551.380859375,243.7877655029297 L549.9765625,243.78167724609375 L548.9965209960938,243.63522338867188 L548.474853515625,243.48329162597656 M566.0219116210938,238.9088592529297 M563.6580200195312,237.5580291748047 L562.9483032226562,237.54653930664062 L561.8269653320312,237.65016174316406 L560.4691162109375,237.96974182128906 L559.215087890625,238.57981872558594 L558.2033081054688,239.45974731445312 L557.5460205078125,240.54449462890625 L557.2984008789062,241.72265625 L557.5286254882812,242.86422729492188 L558.2454833984375,243.81883239746094 L559.4000244140625,244.45068359375 L560.8814086914062,244.6538543701172 L562.5413818359375,244.39491271972656 L564.200927734375,243.69679260253906 L565.6754150390625,242.63656616210938 L566.8036499023438,241.33270263671875 L567.4655151367188,239.92921447753906 L567.6143798828125,238.5694122314453 L567.2859497070312,237.3817138671875 L566.5809326171875,236.48199462890625 L565.669677734375,235.93804931640625 L564.7445678710938,235.75527954101562 L564.0350341796875,235.7984161376953 L563.6285400390625,235.92051696777344 M571.0990600585938,236.58041381835938 L570.9475708007812,236.5648956298828 L570.6524658203125,236.69822692871094 L570.211669921875,237.1132049560547 L569.689453125,237.91009521484375 L569.1636352539062,239.05789184570312 L568.7265625,240.45347595214844 L568.4708251953125,241.92822265625 L568.4736328125,243.30372619628906 L568.777099609375,244.4001007080078 L569.3819580078125,245.0866241455078 L570.2439575195312,245.2838897705078 L571.2894287109375,244.97113037109375 L572.435791015625,244.17149353027344 L573.5888671875,242.9647674560547 L574.673095703125,241.47088623046875 L575.61083984375,239.87472534179688 L576.33740234375,238.38294982910156 L576.8213500976562,237.16448974609375 L577.0607299804688,236.34237670898438 L577.0693359375,235.99427795410156 L576.886474609375,236.1496124267578 L576.5430908203125,236.82427978515625 L576.0830688476562,237.97772216796875 L575.5860595703125,239.48622131347656 L575.1455688476562,241.1409149169922 L574.8388671875,242.70486450195312 L574.6849365234375,243.8570556640625 L574.6426391601562,244.50436401367188 M580.5103759765625,237.01121520996094 L580.4703979492188,237.10353088378906 L580.3316650390625,237.46923828125 L580.0399780273438,238.2422637939453 L579.5814208984375,239.43881225585938 L579.007080078125,240.9109344482422 L578.414794921875,242.42459106445312 L577.894287109375,243.75445556640625 L577.5079345703125,244.7333984375 L577.2811279296875,245.25465393066406 L577.2156982421875,245.26011657714844 L577.3231811523438,244.7370147705078 L577.626708984375,243.70030212402344 L578.1372680664062,242.25723266601562 L578.8629150390625,240.57479858398438 L579.796630859375,238.85003662109375 L580.9012451171875,237.27426147460938 L582.1148681640625,236.0001220703125 L583.3523559570312,235.1206817626953 L584.5137939453125,234.69967651367188 L585.5054931640625,234.759033203125 L586.2506103515625,235.2834014892578 L586.69140625,236.2218017578125 L586.7945556640625,237.48321533203125 L586.5799560546875,238.9854278564453 L586.1405029296875,240.5939483642578 L585.6171875,242.1589813232422 L585.1898803710938,243.36766052246094 L584.9415893554688,244.09176635742188 M595.4361572265625,241.2371063232422 L595.5050659179688,240.68692016601562 L595.4656372070312,239.84036254882812 L595.183837890625,238.8585662841797 L594.5440063476562,238.0285186767578 L593.5531005859375,237.4747314453125 L592.275634765625,237.29029846191406 L590.836181640625,237.51646423339844 L589.3712768554688,238.17628479003906 L588.0488891601562,239.2270965576172 L587.0298461914062,240.55702209472656 L586.4439697265625,241.9996337890625 L586.3661499023438,243.3577880859375 L586.8140869140625,244.43455505371094 L587.7423095703125,245.05958557128906 L589.0609741210938,245.11244201660156 L590.6480102539062,244.5298614501953 L592.3706665039062,243.31507873535156 L594.1029052734375,241.53968811035156 L595.74072265625,239.3364715576172 L597.206298828125,236.88705444335938 L598.4456787109375,234.39715576171875 L599.4284057617188,232.0670623779297 L600.1454467773438,230.0626983642578 L600.6023559570312,228.5000457763672 L600.8150024414062,227.4669952392578 L600.7994995117188,227.02911376953125 L600.56689453125,227.2382354736328 L600.1321411132812,228.1273956298828 L599.526123046875,229.66722106933594 L598.7982177734375,231.7452392578125 L598.014404296875,234.20492553710938 L597.24462890625,236.85433959960938 L596.552734375,239.4944305419922 L595.9966430664062,241.9512939453125 L595.6192626953125,244.08380126953125 L595.4700317382812,245.7447509765625 L595.5586547851562,246.8498077392578 L595.8544921875,247.3903350830078 L596.1943359375,247.52645874023438 L596.4561767578125,247.4617919921875 " fill="none" stroke="black" stroke-linecap="round" stroke-width="2" /></svg>